<svg version="1.1" xmlns="http://www.w3.org/2000/svg" xmlns:xlink="http://www.w3.org/1999/xlink">

    <symbol id="arrow-right" viewBox="0 0 16 12">
        <path d="M15.92 6.37994C16.02 6.13648 16.02 5.8634 15.92 5.61994C15.8724 5.49719 15.801 5.38505 15.71 5.28994L11.71 1.28994C11.6168 1.1967 11.5061 1.12274 11.3842 1.07228C11.2624 1.02182 11.1319 0.99585 11 0.99585C10.7337 0.99585 10.4783 1.10164 10.29 1.28994C10.1968 1.38318 10.1228 1.49387 10.0723 1.61569C10.0219 1.73751 9.99591 1.86808 9.99591 1.99994C9.99591 2.26624 10.1017 2.52164 10.29 2.70994L12.59 4.99994H1C0.734784 4.99994 0.48043 5.1053 0.292893 5.29283C0.105357 5.48037 0 5.73472 0 5.99994C0 6.26516 0.105357 6.51951 0.292893 6.70705C0.48043 6.89458 0.734784 6.99994 1 6.99994H12.59L10.29 9.28994C10.1963 9.38291 10.1219 9.4935 10.0711 9.61536C10.0203 9.73722 9.9942 9.86793 9.9942 9.99994C9.9942 10.132 10.0203 10.2627 10.0711 10.3845C10.1219 10.5064 10.1963 10.617 10.29 10.7099C10.383 10.8037 10.4936 10.8781 10.6154 10.9288C10.7373 10.9796 10.868 11.0057 11 11.0057C11.132 11.0057 11.2627 10.9796 11.3846 10.9288C11.5064 10.8781 11.617 10.8037 11.71 10.7099L15.71 6.70994C15.801 6.61484 15.8724 6.50269 15.92 6.37994Z"/>
    </symbol>

    <symbol id="label" viewBox="0 0 24 24">
        <path d="M24 0H0V24H24V0Z" fill="white" fill-opacity="0.01"/>
        <path d="M20 23C19.8401 23.0006 19.6823 22.9629 19.54 22.89L12 19L4.46001 22.9C4.30667 22.9795 4.13536 23.0178 3.96278 23.0114C3.79019 23.005 3.62221 22.954 3.47519 22.8634C3.32817 22.7727 3.20713 22.6456 3.12386 22.4943C3.04059 22.343 2.99792 22.1727 3.00001 22V3C3.00001 2.46957 3.21073 1.96086 3.5858 1.58579C3.96087 1.21071 4.46958 1 5.00001 1H19C19.5304 1 20.0392 1.21071 20.4142 1.58579C20.7893 1.96086 21 2.46957 21 3V22C21 22.2652 20.8947 22.5196 20.7071 22.7071C20.5196 22.8946 20.2652 23 20 23ZM12 16.86C12.1599 16.8594 12.3177 16.8971 12.46 16.97L19 20.36V3H5.00001V20.36L11.54 17C11.6797 16.9166 11.8376 16.8686 12 16.86Z"/>
        <path d="M16 10H8C7.73478 10 7.48043 9.89464 7.29289 9.70711C7.10536 9.51957 7 9.26522 7 9C7 8.73478 7.10536 8.48043 7.29289 8.29289C7.48043 8.10536 7.73478 8 8 8H16C16.2652 8 16.5196 8.10536 16.7071 8.29289C16.8946 8.48043 17 8.73478 17 9C17 9.26522 16.8946 9.51957 16.7071 9.70711C16.5196 9.89464 16.2652 10 16 10Z"/>
    </symbol>

    <symbol id="links1" viewBox="0 0 24 24">
        <path d="M24 0H0V24H24V0Z" fill="white" fill-opacity="0.01"/>
        <path d="M4 7.49994C3.8684 7.5007 3.73793 7.47548 3.6161 7.42571C3.49426 7.37595 3.38344 7.30262 3.29 7.20994L1.79 5.70994C1.6017 5.52164 1.49591 5.26624 1.49591 4.99994C1.49591 4.73364 1.6017 4.47824 1.79 4.28994C1.97831 4.10164 2.2337 3.99585 2.5 3.99585C2.7663 3.99585 3.0217 4.10164 3.21 4.28994L4 5.08994L6.29 2.78994C6.47831 2.60164 6.7337 2.49585 7 2.49585C7.2663 2.49585 7.5217 2.60164 7.71 2.78994C7.89831 2.97824 8.00409 3.23364 8.00409 3.49994C8.00409 3.76624 7.89831 4.02164 7.71 4.20994L4.71 7.20994C4.61656 7.30262 4.50575 7.37595 4.38391 7.42571C4.26207 7.47548 4.13161 7.5007 4 7.49994Z"/>
        <path d="M4 14.4999C3.8684 14.5007 3.73793 14.4755 3.6161 14.4257C3.49426 14.3759 3.38344 14.3026 3.29 14.2099L1.79 12.7099C1.6017 12.5216 1.49591 12.2662 1.49591 11.9999C1.49591 11.7336 1.6017 11.4782 1.79 11.2899C1.97831 11.1016 2.2337 10.9958 2.5 10.9958C2.7663 10.9958 3.0217 11.1016 3.21 11.2899L4 12.0899L6.29 9.78994C6.47831 9.60164 6.7337 9.49585 7 9.49585C7.2663 9.49585 7.5217 9.60164 7.71 9.78994C7.89831 9.97824 8.00409 10.2336 8.00409 10.4999C8.00409 10.7662 7.89831 11.0216 7.71 11.2099L4.71 14.2099C4.61656 14.3026 4.50575 14.3759 4.38391 14.4257C4.26207 14.4755 4.13161 14.5007 4 14.4999Z"/>
        <path d="M4 21.4999C3.8684 21.5007 3.73793 21.4755 3.6161 21.4257C3.49426 21.3759 3.38344 21.3026 3.29 21.2099L1.79 19.7099C1.6017 19.5216 1.49591 19.2662 1.49591 18.9999C1.49591 18.7336 1.6017 18.4782 1.79 18.2899C1.97831 18.1016 2.2337 17.9958 2.5 17.9958C2.7663 17.9958 3.0217 18.1016 3.21 18.2899L4 19.0899L6.29 16.7899C6.47831 16.6016 6.7337 16.4958 7 16.4958C7.2663 16.4958 7.5217 16.6016 7.71 16.7899C7.89831 16.9782 8.00409 17.2336 8.00409 17.4999C8.00409 17.7662 7.89831 18.0216 7.71 18.2099L4.71 21.2099C4.61656 21.3026 4.50575 21.3759 4.38391 21.4257C4.26207 21.4755 4.13161 21.5007 4 21.4999Z"/>
        <path d="M21.5 13H10.5C10.2348 13 9.98043 12.8946 9.79289 12.7071C9.60536 12.5196 9.5 12.2652 9.5 12C9.5 11.7348 9.60536 11.4804 9.79289 11.2929C9.98043 11.1054 10.2348 11 10.5 11H21.5C21.7652 11 22.0196 11.1054 22.2071 11.2929C22.3946 11.4804 22.5 11.7348 22.5 12C22.5 12.2652 22.3946 12.5196 22.2071 12.7071C22.0196 12.8946 21.7652 13 21.5 13Z"/>
        <path d="M21.5 20H10.5C10.2348 20 9.98043 19.8946 9.79289 19.7071C9.60536 19.5196 9.5 19.2652 9.5 19C9.5 18.7348 9.60536 18.4804 9.79289 18.2929C9.98043 18.1054 10.2348 18 10.5 18H21.5C21.7652 18 22.0196 18.1054 22.2071 18.2929C22.3946 18.4804 22.5 18.7348 22.5 19C22.5 19.2652 22.3946 19.5196 22.2071 19.7071C22.0196 19.8946 21.7652 20 21.5 20Z"/>
        <path d="M21.5 6H10.5C10.2348 6 9.98043 5.89464 9.79289 5.70711C9.60536 5.51957 9.5 5.26522 9.5 5C9.5 4.73478 9.60536 4.48043 9.79289 4.29289C9.98043 4.10536 10.2348 4 10.5 4H21.5C21.7652 4 22.0196 4.10536 22.2071 4.29289C22.3946 4.48043 22.5 4.73478 22.5 5C22.5 5.26522 22.3946 5.51957 22.2071 5.70711C22.0196 5.89464 21.7652 6 21.5 6Z"/>
    </symbol>

    <symbol id="links2" viewBox="0 0 24 24">
        <path d="M24 0H0V24H24V0Z" fill="white" fill-opacity="0.01"/>
        <path d="M8.5 16C8.23478 16 7.98043 16.1054 7.79289 16.2929C7.60536 16.4804 7.5 16.7348 7.5 17V21.07C7.5 21.3352 7.60536 21.5896 7.79289 21.7771C7.98043 21.9646 8.23478 22.07 8.5 22.07C8.76522 22.07 9.01957 21.9646 9.20711 21.7771C9.39464 21.5896 9.5 21.3352 9.5 21.07V17C9.5 16.7348 9.39464 16.4804 9.20711 16.2929C9.01957 16.1054 8.76522 16 8.5 16Z"/>
        <path d="M4.5 19C4.23478 19 3.98043 19.1054 3.79289 19.2929C3.60536 19.4804 3.5 19.7348 3.5 20V21C3.5 21.2652 3.60536 21.5196 3.79289 21.7071C3.98043 21.8946 4.23478 22 4.5 22C4.76522 22 5.01957 21.8946 5.20711 21.7071C5.39464 21.5196 5.5 21.2652 5.5 21V20C5.5 19.7348 5.39464 19.4804 5.20711 19.2929C5.01957 19.1054 4.76522 19 4.5 19Z"/>
        <path d="M12.5 12.5C12.2348 12.5 11.9804 12.6054 11.7929 12.7929C11.6054 12.9804 11.5 13.2348 11.5 13.5V21C11.5 21.2652 11.6054 21.5196 11.7929 21.7071C11.9804 21.8946 12.2348 22 12.5 22C12.7652 22 13.0196 21.8946 13.2071 21.7071C13.3946 21.5196 13.5 21.2652 13.5 21V13.5C13.5 13.2348 13.3946 12.9804 13.2071 12.7929C13.0196 12.6054 12.7652 12.5 12.5 12.5Z"/>
        <path d="M16.5 8.47998C16.2348 8.47998 15.9804 8.58534 15.7929 8.77287C15.6054 8.96041 15.5 9.21476 15.5 9.47998V21C15.5 21.2652 15.6054 21.5196 15.7929 21.7071C15.9804 21.8946 16.2348 22 16.5 22C16.7652 22 17.0196 21.8946 17.2071 21.7071C17.3946 21.5196 17.5 21.2652 17.5 21V9.47998C17.5 9.21476 17.3946 8.96041 17.2071 8.77287C17.0196 8.58534 16.7652 8.47998 16.5 8.47998Z"/>
        <path d="M20.5 4.48999C20.2348 4.48999 19.9804 4.59535 19.7929 4.78288C19.6054 4.97042 19.5 5.22477 19.5 5.48999V21C19.5 21.2652 19.6054 21.5196 19.7929 21.7071C19.9804 21.8946 20.2348 22 20.5 22C20.7652 22 21.0196 21.8946 21.2071 21.7071C21.3946 21.5196 21.5 21.2652 21.5 21V5.48999C21.5 5.22477 21.3946 4.97042 21.2071 4.78288C21.0196 4.59535 20.7652 4.48999 20.5 4.48999Z"/>
        <path d="M17.92 2.62C17.8185 2.37565 17.6243 2.18147 17.38 2.08C17.2598 2.02876 17.1307 2.00158 17 2H11.75C11.4848 2 11.2304 2.10536 11.0429 2.29289C10.8554 2.48043 10.75 2.73478 10.75 3C10.75 3.26522 10.8554 3.51957 11.0429 3.70711C11.2304 3.89464 11.4848 4 11.75 4H14.59L2.79 15.79C2.69627 15.883 2.62188 15.9936 2.57111 16.1154C2.52034 16.2373 2.4942 16.368 2.4942 16.5C2.4942 16.632 2.52034 16.7627 2.57111 16.8846C2.62188 17.0064 2.69627 17.117 2.79 17.21C2.88296 17.3037 2.99356 17.3781 3.11542 17.4289C3.23728 17.4797 3.36799 17.5058 3.5 17.5058C3.63201 17.5058 3.76272 17.4797 3.88458 17.4289C4.00644 17.3781 4.11704 17.3037 4.21 17.21L17.71 3.71C17.801 3.6149 17.8724 3.50275 17.92 3.38C18.02 3.13654 18.02 2.86346 17.92 2.62Z"/>
    </symbol>

    <symbol id="links3" viewBox="0 0 24 24">
        <path d="M24 0H0V24H24V0Z" fill="white" fill-opacity="0.01"/>
        <path d="M8.10998 20.8901C7.02192 20.8904 5.9582 20.5681 5.05339 19.9637C4.14858 19.3594 3.44335 18.5003 3.02692 17.4951C2.61049 16.4899 2.50157 15.3837 2.71394 14.3166C2.92631 13.2494 3.45043 12.2693 4.21998 11.5001L11.65 4.08006C11.8413 3.91624 12.0874 3.83063 12.339 3.84035C12.5907 3.85007 12.8295 3.95441 13.0075 4.1325C13.1856 4.31059 13.29 4.54933 13.2997 4.80101C13.3094 5.05269 13.2238 5.29876 13.06 5.49006L5.63998 12.9101C4.98357 13.5731 4.61744 14.4697 4.62213 15.4027C4.62682 16.3357 5.00194 17.2287 5.66498 17.8851C6.32802 18.5415 7.22467 18.9076 8.15766 18.9029C9.09065 18.8982 9.98357 18.5231 10.64 17.8601L19.42 9.00006C19.7871 8.63001 19.9952 8.13127 20 7.61006C19.9977 7.08049 19.7856 6.57341 19.41 6.20006C19.0353 5.82756 18.5284 5.61848 18 5.61848C17.4716 5.61848 16.9647 5.82756 16.59 6.20006L7.75998 15.0001C7.71215 15.045 7.67403 15.0992 7.64797 15.1594C7.62191 15.2196 7.60846 15.2845 7.60846 15.3501C7.60846 15.4157 7.62191 15.4806 7.64797 15.5408C7.67403 15.601 7.71215 15.6552 7.75998 15.7001C7.80487 15.7479 7.85909 15.786 7.91929 15.8121C7.97949 15.8381 8.04439 15.8516 8.10998 15.8516C8.17558 15.8516 8.24048 15.8381 8.30068 15.8121C8.36088 15.786 8.41509 15.7479 8.45998 15.7001L15.89 8.28006C16.0823 8.09309 16.3409 7.99015 16.6091 7.9939C16.8773 7.99765 17.133 8.10778 17.32 8.30006C17.507 8.49235 17.6099 8.75103 17.6061 9.01921C17.6024 9.28738 17.4923 9.54309 17.3 9.73006L9.87998 17.1601C9.53034 17.5106 9.08448 17.7494 8.59894 17.8463C8.11339 17.9431 7.61003 17.8936 7.15267 17.704C6.6953 17.5144 6.30452 17.1933 6.02988 16.7813C5.75524 16.3694 5.6091 15.8852 5.60998 15.3901C5.60885 15.0615 5.67277 14.7359 5.79806 14.4321C5.92335 14.1283 6.10753 13.8523 6.33998 13.6201L15.18 4.78006C15.9426 4.05259 16.956 3.64673 18.01 3.64673C19.0639 3.64673 20.0774 4.05259 20.84 4.78006C21.2119 5.15156 21.5069 5.59271 21.7082 6.0783C21.9095 6.56389 22.0131 7.0844 22.0131 7.61006C22.0131 8.13573 21.9095 8.65623 21.7082 9.14183C21.5069 9.62742 21.2119 10.0686 20.84 10.4401L12 19.2801C11.4894 19.7912 10.883 20.1965 10.2154 20.4728C9.54792 20.749 8.83242 20.8908 8.10998 20.8901Z"/>
    </symbol>

    <symbol id="hash" viewBox="0 0 24 24">
        <path d="M24 0H0V24H24V0Z" fill="white" fill-opacity="0.01"/>
        <path d="M12 1C10.1904 0.998764 8.40838 1.44401 6.81199 2.29627C5.21561 3.14853 3.85414 4.38147 2.84827 5.88582C1.84241 7.39016 1.22323 9.11943 1.04561 10.9203C0.86799 12.7212 1.13742 14.5381 1.83002 16.21C2.07789 16.7876 2.36871 17.3458 2.70002 17.88C2.53024 18.8478 2.29639 19.8032 2.00002 20.74C1.94306 20.9154 1.9357 21.1031 1.97876 21.2824C2.02181 21.4617 2.11361 21.6256 2.24401 21.756C2.3744 21.8864 2.53831 21.9782 2.71761 22.0213C2.89692 22.0643 3.08464 22.057 3.26002 22C4.19991 21.7227 5.15478 21.4991 6.12002 21.33C6.64954 21.6722 7.2084 21.9667 7.79002 22.21C9.2902 22.8112 10.9044 23.0744 12.5179 22.981C14.1313 22.8875 15.7044 22.4397 17.1251 21.6693C18.5459 20.899 19.7794 19.825 20.738 18.5238C21.6966 17.2226 22.3567 15.7262 22.6713 14.141C22.986 12.5558 22.9475 10.9207 22.5585 9.35201C22.1696 7.78336 21.4397 6.31968 20.4209 5.06509C19.4021 3.8105 18.1194 2.79582 16.6639 2.09322C15.2085 1.39062 13.6161 1.01737 12 1ZM12 21C10.8167 21.0006 9.64465 20.7696 8.55002 20.32C8.00893 20.0876 7.49012 19.8065 7.00002 19.48C6.79547 19.3372 6.54912 19.2669 6.30002 19.28C5.6573 19.3205 5.02054 19.4277 4.40002 19.6C4.86002 17.66 4.75002 17.35 4.52002 17C4.19152 16.5111 3.91025 15.9921 3.68002 15.45C2.9399 13.6667 2.79287 11.6927 3.26066 9.81947C3.72845 7.94623 4.78625 6.27308 6.27786 5.04712C7.76946 3.82115 9.61577 3.10737 11.5441 3.01118C13.4725 2.91499 15.3807 3.4415 16.9869 4.51294C18.5931 5.58438 19.8121 7.14396 20.464 8.96135C21.1159 10.7787 21.1661 12.7576 20.6071 14.6057C20.0481 16.4537 18.9096 18.0731 17.3597 19.2245C15.8099 20.3759 13.9308 20.9984 12 21Z"/>
        <path d="M16.69 8.9099H15.25L15.41 7.9999C15.433 7.87055 15.4303 7.73792 15.4021 7.60959C15.3739 7.48127 15.3206 7.35978 15.2454 7.25205C15.1702 7.14432 15.0744 7.05247 14.9637 6.98175C14.853 6.91103 14.7294 6.86283 14.6 6.8399C14.4699 6.81697 14.3366 6.82002 14.2077 6.84889C14.0788 6.87777 13.9569 6.93189 13.8491 7.00813C13.7412 7.08437 13.6495 7.18122 13.5793 7.29309C13.5091 7.40496 13.4618 7.52963 13.44 7.6599L13.22 8.8699H11.76L11.91 7.9999C11.933 7.87055 11.9303 7.73792 11.9021 7.60959C11.8739 7.48127 11.8206 7.35978 11.7454 7.25205C11.6702 7.14432 11.5744 7.05247 11.4637 6.98175C11.353 6.91103 11.2294 6.86283 11.1 6.8399C10.9699 6.81697 10.8366 6.82002 10.7077 6.84889C10.5788 6.87777 10.4569 6.93189 10.3491 7.00813C10.2412 7.08437 10.1495 7.18122 10.0793 7.29309C10.0091 7.40496 9.96175 7.52963 9.93999 7.6599L9.71999 8.9099H8.29999C8.03477 8.9099 7.78042 9.01526 7.59288 9.2028C7.40534 9.39033 7.29999 9.64469 7.29999 9.9099C7.29999 10.1751 7.40534 10.4295 7.59288 10.617C7.78042 10.8045 8.03477 10.9099 8.29999 10.9099H9.36999L8.99999 12.9999H7.29999C7.03477 12.9999 6.78042 13.1053 6.59288 13.2928C6.40534 13.4803 6.29999 13.7347 6.29999 13.9999C6.29999 14.2651 6.40534 14.5195 6.59288 14.707C6.78042 14.8945 7.03477 14.9999 7.29999 14.9999H8.64999L8.47999 15.9999C8.45695 16.1293 8.45963 16.2619 8.48787 16.3902C8.51612 16.5185 8.56937 16.64 8.6446 16.7478C8.71982 16.8555 8.81554 16.9473 8.92628 17.0181C9.03702 17.0888 9.16061 17.137 9.28999 17.1599H9.46999C9.70822 17.1634 9.93986 17.0817 10.1232 16.9295C10.3065 16.7773 10.4295 16.5647 10.47 16.3299L10.7 15.0299H12.17L12 15.9999C11.9769 16.1293 11.9796 16.2619 12.0079 16.3902C12.0361 16.5185 12.0894 16.64 12.1646 16.7478C12.2398 16.8555 12.3355 16.9473 12.4463 17.0181C12.557 17.0888 12.6806 17.137 12.81 17.1599H13C13.2382 17.1634 13.4699 17.0817 13.6532 16.9295C13.8365 16.7773 13.9595 16.5647 14 16.3299L14.23 15.0299H15.74C16.0052 15.0299 16.2596 14.9245 16.4471 14.737C16.6346 14.5495 16.74 14.2951 16.74 14.0299C16.74 13.7647 16.6346 13.5103 16.4471 13.3228C16.2596 13.1353 16.0052 13.0299 15.74 13.0299H14.53L14.9 10.9399H16.69C16.9552 10.9399 17.2096 10.8345 17.3971 10.647C17.5846 10.4595 17.69 10.2051 17.69 9.9399C17.69 9.67469 17.5846 9.42033 17.3971 9.2328C17.2096 9.04526 16.9552 8.9399 16.69 8.9399V8.9099ZM12.5 12.9999H11L11.37 10.9099H12.84L12.5 12.9999Z"/>
    </symbol>

    <symbol id="home" viewBox="0 0 24 24">
        <path d="M24 0H0V24H24V0Z" fill="white" fill-opacity="0.01"/>
        <path d="M22.62 10.22L12.62 2.22004C12.4434 2.08053 12.225 2.00464 12 2.00464C11.775 2.00464 11.5565 2.08053 11.38 2.22004L1.37998 10.22C1.1978 10.392 1.0868 10.6261 1.06895 10.876C1.0511 11.1259 1.1277 11.3734 1.28358 11.5695C1.43947 11.7656 1.6633 11.8961 1.91077 11.9351C2.15825 11.974 2.41134 11.9187 2.61998 11.78L3.49998 11.08V21C3.49998 21.2653 3.60534 21.5196 3.79288 21.7071C3.98041 21.8947 4.23477 22 4.49998 22H19.5C19.7652 22 20.0196 21.8947 20.2071 21.7071C20.3946 21.5196 20.5 21.2653 20.5 21V11.08L21.38 11.78C21.5559 11.9212 21.7744 11.9987 22 12C22.1502 11.9993 22.2983 11.9648 22.4333 11.899C22.5684 11.8333 22.6869 11.7379 22.78 11.62C22.9435 11.4128 23.0184 11.1493 22.9885 10.8871C22.9585 10.6248 22.826 10.385 22.62 10.22ZM10.5 20V15.5H13.5V20H10.5ZM18.5 20H15.5V14.5C15.5 14.2348 15.3946 13.9805 15.2071 13.7929C15.0196 13.6054 14.7652 13.5 14.5 13.5H9.49998C9.23477 13.5 8.98041 13.6054 8.79288 13.7929C8.60534 13.9805 8.49998 14.2348 8.49998 14.5V20H5.49998V9.48004L12 4.28004L18.5 9.48004V20Z"/>
    </symbol>

    <symbol id="user" viewBox="0 0 24 24">
        <path d="M24 0H0V24H24V0Z" fill="white" fill-opacity="0.01"/>
        <path d="M23 12C23 5.935 18.065 1 12 1C5.935 1 1 5.935 1 12C1 15.037 2.238 17.79 4.234 19.783C4.283 19.845 4.345 19.892 4.408 19.941C6.385 21.831 9.056 23 12 23C14.985 23 17.693 21.801 19.677 19.864C19.702 19.84 19.731 19.822 19.753 19.795C21.757 17.801 23 15.043 23 12ZM12 3C16.963 3 21 7.038 21 12C21 13.861 20.432 15.592 19.461 17.028C18.512 14.944 16.409 13.5 14 13.5H10C7.589 13.5 5.487 14.943 4.539 17.028C3.568 15.591 3 13.861 3 12C3 7.038 7.038 3 12 3ZM6.085 18.767C6.433 16.904 8.06 15.5 10 15.5H14C15.938 15.5 17.567 16.906 17.915 18.767C16.331 20.153 14.265 21 12 21C9.735 21 7.669 20.153 6.085 18.767Z"/>
        <path d="M12 12.5C13.93 12.5 15.5 10.93 15.5 9C15.5 7.07 13.93 5.5 12 5.5C10.07 5.5 8.5 7.07 8.5 9C8.5 10.93 10.07 12.5 12 12.5ZM12 7.5C12.827 7.5 13.5 8.173 13.5 9C13.5 9.827 12.827 10.5 12 10.5C11.173 10.5 10.5 9.827 10.5 9C10.5 8.173 11.173 7.5 12 7.5Z"/>
    </symbol>

    <symbol id="logout" viewBox="0 0 24 24">
        <path d="M14.5 8C16.43 8 18 6.43 18 4.5C18 2.57 16.43 1 14.5 1C12.57 1 11 2.57 11 4.5C11 6.43 12.57 8 14.5 8ZM14.5 3C15.327 3 16 3.673 16 4.5C16 5.327 15.327 6 14.5 6C13.673 6 13 5.327 13 4.5C13 3.673 13.673 3 14.5 3Z"/>
        <path d="M20.985 11L17.514 11.052L15.88 10.097C13.776 8.865 11.484 8.019 9.06399 7.585L7.45399 7.3C7.03999 7.227 6.62399 7.42 6.41399 7.784L5.62699 9.147L4.82599 8.685C4.59699 8.553 4.32399 8.518 4.06699 8.585C3.81099 8.654 3.59299 8.822 3.45999 9.051L1.20999 12.948C0.933994 13.427 1.09799 14.038 1.57599 14.314L4.76299 16.154C4.91599 16.242 5.08899 16.288 5.26299 16.288C5.34899 16.288 5.43699 16.276 5.52199 16.254C5.77799 16.186 5.99699 16.018 6.12899 15.788L8.37899 11.891C8.65499 11.413 8.49099 10.801 8.01299 10.525L7.35899 10.147L7.79599 9.391L8.71399 9.554C9.35299 9.669 9.97899 9.825 10.596 10.002L8.99799 12.982L6.42999 16.755C6.04399 17.319 5.50599 17.965 5.03099 18.534C4.57399 19.08 4.17999 19.553 3.91899 19.944C3.61299 20.404 3.73699 21.024 4.19599 21.331C4.36599 21.444 4.55899 21.499 4.74999 21.499C5.07299 21.499 5.38999 21.343 5.58299 21.054C5.78399 20.752 6.16399 20.297 6.56599 19.816C7.06999 19.212 7.64199 18.528 8.08299 17.882L10.078 14.951L13.038 17.295L14.708 22.315C14.848 22.735 15.238 23 15.657 23C15.761 23 15.868 22.983 15.972 22.949C16.496 22.774 16.78 22.208 16.606 21.684L14.93 16.647C14.798 16.274 14.571 15.954 14.278 15.725L11.133 13.235L12.507 10.673C13.318 11.005 14.111 11.378 14.871 11.823L16.521 12.787C16.827 12.959 17.176 13.05 17.544 13.05C17.544 13.05 17.544 13.05 17.545 13.05L21.015 13C21.567 12.992 22.008 12.538 22 11.986C21.992 11.434 21.526 11.007 20.985 11ZM4.89599 13.922L3.44199 13.082L4.69199 10.917L6.14599 11.757L4.89599 13.922Z"/>

    </symbol>

    <symbol id="settings" viewBox="0 0 24 24">
        <path d="M24 0H0V24H24V0Z" fill="white" fill-opacity="0.01"/>
        <path d="M22.707 11.293L20 8.586V5C20 4.448 19.553 4 19 4H15.414L12.707 1.293C12.316 0.901998 11.684 0.901998 11.293 1.293L8.58601 4H5.00001C4.44801 4 4.00001 4.448 4.00001 5V8.586L1.29301 11.293C0.902006 11.684 0.902006 12.316 1.29301 12.707L4.00001 15.414V19C4.00001 19.553 4.44801 20 5.00001 20H8.58601L11.293 22.707C11.488 22.902 11.744 23 12 23C12.256 23 12.512 22.902 12.707 22.707L15.414 20H19C19.553 20 20 19.553 20 19V15.414L22.707 12.707C23.098 12.316 23.098 11.684 22.707 11.293ZM18.293 14.293C18.105 14.48 18 14.734 18 15V18H15C14.734 18 14.48 18.105 14.293 18.293L12 20.586L9.70701 18.293C9.52001 18.105 9.26501 18 9.00001 18H6.00001V15C6.00001 14.734 5.89501 14.48 5.70701 14.293L3.41401 12L5.70701 9.707C5.89501 9.52 6.00001 9.265 6.00001 9V6H9.00001C9.26501 6 9.52001 5.895 9.70701 5.707L12 3.414L14.293 5.707C14.48 5.895 14.734 6 15 6H18V9C18 9.265 18.105 9.52 18.293 9.707L20.586 12L18.293 14.293Z"/>
        <path d="M12 8C9.794 8 8 9.794 8 12C8 14.206 9.794 16 12 16C14.206 16 16 14.206 16 12C16 9.794 14.206 8 12 8ZM12 14C10.897 14 10 13.103 10 12C10 10.897 10.897 10 12 10C13.103 10 14 10.897 14 12C14 13.103 13.103 14 12 14Z"/>

    </symbol>

    <symbol id="help" viewBox="0 0 24 24">
        <path d="M24 0H0V24H24V0Z" fill="white" fill-opacity="0.01"/>
        <path d="M7.741 5.44C7.991 5.226 8.263 5.023 8.557 4.833C8.85 4.643 9.171 4.477 9.518 4.335C9.865 4.193 10.239 4.083 10.641 4.003C11.042 3.923 11.479 3.884 11.952 3.884C12.596 3.884 13.181 3.97 13.71 4.143C14.239 4.316 14.692 4.561 15.071 4.882C15.451 5.202 15.744 5.59 15.95 6.044C16.156 6.498 16.26 7.006 16.26 7.569C16.26 8.132 16.176 8.618 16.01 9.029C15.843 9.44 15.635 9.797 15.386 10.1C15.137 10.403 14.863 10.664 14.563 10.885C14.262 11.105 13.978 11.312 13.711 11.507C13.443 11.701 13.223 11.893 13.05 12.08C12.876 12.268 12.774 12.48 12.74 12.719L12.5 14.34H10.642L10.517 12.533C10.487 12.187 10.539 11.883 10.674 11.619C10.809 11.355 10.991 11.116 11.222 10.9C11.452 10.684 11.709 10.473 11.992 10.267C12.275 10.061 12.54 9.84 12.786 9.602C13.034 9.364 13.239 9.095 13.404 8.796C13.569 8.497 13.651 8.138 13.651 7.719C13.651 7.452 13.602 7.215 13.505 7.005C13.407 6.796 13.274 6.616 13.103 6.464C12.932 6.312 12.726 6.197 12.486 6.118C12.243 6.04 11.983 6 11.705 6C11.289 6 10.937 6.045 10.647 6.135C10.357 6.225 10.111 6.328 9.911 6.443C9.71 6.56 9.54 6.664 9.4 6.758C9.26 6.852 9.137 6.898 9.03 6.898C8.765 6.898 8.572 6.788 8.45 6.568L7.741 5.44ZM10.072 18.472C10.072 18.243 10.108 18.026 10.181 17.822C10.254 17.618 10.352 17.443 10.476 17.296C10.6 17.15 10.748 17.031 10.921 16.942C11.094 16.853 11.28 16.808 11.48 16.808C11.707 16.808 11.917 16.853 12.11 16.942C12.302 17.032 12.472 17.15 12.617 17.296C12.762 17.443 12.877 17.618 12.963 17.822C13.049 18.026 13.092 18.243 13.092 18.472C13.092 18.708 13.049 18.927 12.963 19.127C12.877 19.327 12.762 19.501 12.617 19.648C12.472 19.795 12.303 19.91 12.11 19.993C11.917 20.075 11.707 20.116 11.48 20.116C11.28 20.116 11.094 20.075 10.921 19.993C10.749 19.91 10.6 19.796 10.476 19.648C10.352 19.502 10.254 19.328 10.181 19.127C10.108 18.926 10.072 18.708 10.072 18.472Z"/>

    </symbol>

</svg>

