<svg version="1.1" xmlns="http://www.w3.org/2000/svg" xmlns:xlink="http://www.w3.org/1999/xlink">

    <symbol id="arrow-right" viewBox="0 0 16 12">
        <path d="M15.92 6.37994C16.02 6.13648 16.02 5.8634 15.92 5.61994C15.8724 5.49719 15.801 5.38505 15.71 5.28994L11.71 1.28994C11.6168 1.1967 11.5061 1.12274 11.3842 1.07228C11.2624 1.02182 11.1319 0.99585 11 0.99585C10.7337 0.99585 10.4783 1.10164 10.29 1.28994C10.1968 1.38318 10.1228 1.49387 10.0723 1.61569C10.0219 1.73751 9.99591 1.86808 9.99591 1.99994C9.99591 2.26624 10.1017 2.52164 10.29 2.70994L12.59 4.99994H1C0.734784 4.99994 0.48043 5.1053 0.292893 5.29283C0.105357 5.48037 0 5.73472 0 5.99994C0 6.26516 0.105357 6.51951 0.292893 6.70705C0.48043 6.89458 0.734784 6.99994 1 6.99994H12.59L10.29 9.28994C10.1963 9.38291 10.1219 9.4935 10.0711 9.61536C10.0203 9.73722 9.9942 9.86793 9.9942 9.99994C9.9942 10.132 10.0203 10.2627 10.0711 10.3845C10.1219 10.5064 10.1963 10.617 10.29 10.7099C10.383 10.8037 10.4936 10.8781 10.6154 10.9288C10.7373 10.9796 10.868 11.0057 11 11.0057C11.132 11.0057 11.2627 10.9796 11.3846 10.9288C11.5064 10.8781 11.617 10.8037 11.71 10.7099L15.71 6.70994C15.801 6.61484 15.8724 6.50269 15.92 6.37994Z"/>
    </symbol>

    <symbol id="label" viewBox="0 0 24 24">
        <path d="M24 0H0V24H24V0Z" fill="white" fill-opacity="0.01"/>
        <path d="M20 23C19.8401 23.0006 19.6823 22.9629 19.54 22.89L12 19L4.46001 22.9C4.30667 22.9795 4.13536 23.0178 3.96278 23.0114C3.79019 23.005 3.62221 22.954 3.47519 22.8634C3.32817 22.7727 3.20713 22.6456 3.12386 22.4943C3.04059 22.343 2.99792 22.1727 3.00001 22V3C3.00001 2.46957 3.21073 1.96086 3.5858 1.58579C3.96087 1.21071 4.46958 1 5.00001 1H19C19.5304 1 20.0392 1.21071 20.4142 1.58579C20.7893 1.96086 21 2.46957 21 3V22C21 22.2652 20.8947 22.5196 20.7071 22.7071C20.5196 22.8946 20.2652 23 20 23ZM12 16.86C12.1599 16.8594 12.3177 16.8971 12.46 16.97L19 20.36V3H5.00001V20.36L11.54 17C11.6797 16.9166 11.8376 16.8686 12 16.86Z"/>
        <path d="M16 10H8C7.73478 10 7.48043 9.89464 7.29289 9.70711C7.10536 9.51957 7 9.26522 7 9C7 8.73478 7.10536 8.48043 7.29289 8.29289C7.48043 8.10536 7.73478 8 8 8H16C16.2652 8 16.5196 8.10536 16.7071 8.29289C16.8946 8.48043 17 8.73478 17 9C17 9.26522 16.8946 9.51957 16.7071 9.70711C16.5196 9.89464 16.2652 10 16 10Z"/>
    </symbol>

    <symbol id="links1" viewBox="0 0 24 24">
        <path d="M24 0H0V24H24V0Z" fill="white" fill-opacity="0.01"/>
        <path d="M4 7.49994C3.8684 7.5007 3.73793 7.47548 3.6161 7.42571C3.49426 7.37595 3.38344 7.30262 3.29 7.20994L1.79 5.70994C1.6017 5.52164 1.49591 5.26624 1.49591 4.99994C1.49591 4.73364 1.6017 4.47824 1.79 4.28994C1.97831 4.10164 2.2337 3.99585 2.5 3.99585C2.7663 3.99585 3.0217 4.10164 3.21 4.28994L4 5.08994L6.29 2.78994C6.47831 2.60164 6.7337 2.49585 7 2.49585C7.2663 2.49585 7.5217 2.60164 7.71 2.78994C7.89831 2.97824 8.00409 3.23364 8.00409 3.49994C8.00409 3.76624 7.89831 4.02164 7.71 4.20994L4.71 7.20994C4.61656 7.30262 4.50575 7.37595 4.38391 7.42571C4.26207 7.47548 4.13161 7.5007 4 7.49994Z"/>
        <path d="M4 14.4999C3.8684 14.5007 3.73793 14.4755 3.6161 14.4257C3.49426 14.3759 3.38344 14.3026 3.29 14.2099L1.79 12.7099C1.6017 12.5216 1.49591 12.2662 1.49591 11.9999C1.49591 11.7336 1.6017 11.4782 1.79 11.2899C1.97831 11.1016 2.2337 10.9958 2.5 10.9958C2.7663 10.9958 3.0217 11.1016 3.21 11.2899L4 12.0899L6.29 9.78994C6.47831 9.60164 6.7337 9.49585 7 9.49585C7.2663 9.49585 7.5217 9.60164 7.71 9.78994C7.89831 9.97824 8.00409 10.2336 8.00409 10.4999C8.00409 10.7662 7.89831 11.0216 7.71 11.2099L4.71 14.2099C4.61656 14.3026 4.50575 14.3759 4.38391 14.4257C4.26207 14.4755 4.13161 14.5007 4 14.4999Z"/>
        <path d="M4 21.4999C3.8684 21.5007 3.73793 21.4755 3.6161 21.4257C3.49426 21.3759 3.38344 21.3026 3.29 21.2099L1.79 19.7099C1.6017 19.5216 1.49591 19.2662 1.49591 18.9999C1.49591 18.7336 1.6017 18.4782 1.79 18.2899C1.97831 18.1016 2.2337 17.9958 2.5 17.9958C2.7663 17.9958 3.0217 18.1016 3.21 18.2899L4 19.0899L6.29 16.7899C6.47831 16.6016 6.7337 16.4958 7 16.4958C7.2663 16.4958 7.5217 16.6016 7.71 16.7899C7.89831 16.9782 8.00409 17.2336 8.00409 17.4999C8.00409 17.7662 7.89831 18.0216 7.71 18.2099L4.71 21.2099C4.61656 21.3026 4.50575 21.3759 4.38391 21.4257C4.26207 21.4755 4.13161 21.5007 4 21.4999Z"/>
        <path d="M21.5 13H10.5C10.2348 13 9.98043 12.8946 9.79289 12.7071C9.60536 12.5196 9.5 12.2652 9.5 12C9.5 11.7348 9.60536 11.4804 9.79289 11.2929C9.98043 11.1054 10.2348 11 10.5 11H21.5C21.7652 11 22.0196 11.1054 22.2071 11.2929C22.3946 11.4804 22.5 11.7348 22.5 12C22.5 12.2652 22.3946 12.5196 22.2071 12.7071C22.0196 12.8946 21.7652 13 21.5 13Z"/>
        <path d="M21.5 20H10.5C10.2348 20 9.98043 19.8946 9.79289 19.7071C9.60536 19.5196 9.5 19.2652 9.5 19C9.5 18.7348 9.60536 18.4804 9.79289 18.2929C9.98043 18.1054 10.2348 18 10.5 18H21.5C21.7652 18 22.0196 18.1054 22.2071 18.2929C22.3946 18.4804 22.5 18.7348 22.5 19C22.5 19.2652 22.3946 19.5196 22.2071 19.7071C22.0196 19.8946 21.7652 20 21.5 20Z"/>
        <path d="M21.5 6H10.5C10.2348 6 9.98043 5.89464 9.79289 5.70711C9.60536 5.51957 9.5 5.26522 9.5 5C9.5 4.73478 9.60536 4.48043 9.79289 4.29289C9.98043 4.10536 10.2348 4 10.5 4H21.5C21.7652 4 22.0196 4.10536 22.2071 4.29289C22.3946 4.48043 22.5 4.73478 22.5 5C22.5 5.26522 22.3946 5.51957 22.2071 5.70711C22.0196 5.89464 21.7652 6 21.5 6Z"/>
    </symbol>

    <symbol id="links2" viewBox="0 0 24 24">
        <path d="M24 0H0V24H24V0Z" fill="white" fill-opacity="0.01"/>
        <path d="M8.5 16C8.23478 16 7.98043 16.1054 7.79289 16.2929C7.60536 16.4804 7.5 16.7348 7.5 17V21.07C7.5 21.3352 7.60536 21.5896 7.79289 21.7771C7.98043 21.9646 8.23478 22.07 8.5 22.07C8.76522 22.07 9.01957 21.9646 9.20711 21.7771C9.39464 21.5896 9.5 21.3352 9.5 21.07V17C9.5 16.7348 9.39464 16.4804 9.20711 16.2929C9.01957 16.1054 8.76522 16 8.5 16Z"/>
        <path d="M4.5 19C4.23478 19 3.98043 19.1054 3.79289 19.2929C3.60536 19.4804 3.5 19.7348 3.5 20V21C3.5 21.2652 3.60536 21.5196 3.79289 21.7071C3.98043 21.8946 4.23478 22 4.5 22C4.76522 22 5.01957 21.8946 5.20711 21.7071C5.39464 21.5196 5.5 21.2652 5.5 21V20C5.5 19.7348 5.39464 19.4804 5.20711 19.2929C5.01957 19.1054 4.76522 19 4.5 19Z"/>
        <path d="M12.5 12.5C12.2348 12.5 11.9804 12.6054 11.7929 12.7929C11.6054 12.9804 11.5 13.2348 11.5 13.5V21C11.5 21.2652 11.6054 21.5196 11.7929 21.7071C11.9804 21.8946 12.2348 22 12.5 22C12.7652 22 13.0196 21.8946 13.2071 21.7071C13.3946 21.5196 13.5 21.2652 13.5 21V13.5C13.5 13.2348 13.3946 12.9804 13.2071 12.7929C13.0196 12.6054 12.7652 12.5 12.5 12.5Z"/>
        <path d="M16.5 8.47998C16.2348 8.47998 15.9804 8.58534 15.7929 8.77287C15.6054 8.96041 15.5 9.21476 15.5 9.47998V21C15.5 21.2652 15.6054 21.5196 15.7929 21.7071C15.9804 21.8946 16.2348 22 16.5 22C16.7652 22 17.0196 21.8946 17.2071 21.7071C17.3946 21.5196 17.5 21.2652 17.5 21V9.47998C17.5 9.21476 17.3946 8.96041 17.2071 8.77287C17.0196 8.58534 16.7652 8.47998 16.5 8.47998Z"/>
        <path d="M20.5 4.48999C20.2348 4.48999 19.9804 4.59535 19.7929 4.78288C19.6054 4.97042 19.5 5.22477 19.5 5.48999V21C19.5 21.2652 19.6054 21.5196 19.7929 21.7071C19.9804 21.8946 20.2348 22 20.5 22C20.7652 22 21.0196 21.8946 21.2071 21.7071C21.3946 21.5196 21.5 21.2652 21.5 21V5.48999C21.5 5.22477 21.3946 4.97042 21.2071 4.78288C21.0196 4.59535 20.7652 4.48999 20.5 4.48999Z"/>
        <path d="M17.92 2.62C17.8185 2.37565 17.6243 2.18147 17.38 2.08C17.2598 2.02876 17.1307 2.00158 17 2H11.75C11.4848 2 11.2304 2.10536 11.0429 2.29289C10.8554 2.48043 10.75 2.73478 10.75 3C10.75 3.26522 10.8554 3.51957 11.0429 3.70711C11.2304 3.89464 11.4848 4 11.75 4H14.59L2.79 15.79C2.69627 15.883 2.62188 15.9936 2.57111 16.1154C2.52034 16.2373 2.4942 16.368 2.4942 16.5C2.4942 16.632 2.52034 16.7627 2.57111 16.8846C2.62188 17.0064 2.69627 17.117 2.79 17.21C2.88296 17.3037 2.99356 17.3781 3.11542 17.4289C3.23728 17.4797 3.36799 17.5058 3.5 17.5058C3.63201 17.5058 3.76272 17.4797 3.88458 17.4289C4.00644 17.3781 4.11704 17.3037 4.21 17.21L17.71 3.71C17.801 3.6149 17.8724 3.50275 17.92 3.38C18.02 3.13654 18.02 2.86346 17.92 2.62Z"/>
    </symbol>

    <symbol id="links3" viewBox="0 0 24 24">
        <path d="M24 0H0V24H24V0Z" fill="white" fill-opacity="0.01"/>
        <path d="M8.10998 20.8901C7.02192 20.8904 5.9582 20.5681 5.05339 19.9637C4.14858 19.3594 3.44335 18.5003 3.02692 17.4951C2.61049 16.4899 2.50157 15.3837 2.71394 14.3166C2.92631 13.2494 3.45043 12.2693 4.21998 11.5001L11.65 4.08006C11.8413 3.91624 12.0874 3.83063 12.339 3.84035C12.5907 3.85007 12.8295 3.95441 13.0075 4.1325C13.1856 4.31059 13.29 4.54933 13.2997 4.80101C13.3094 5.05269 13.2238 5.29876 13.06 5.49006L5.63998 12.9101C4.98357 13.5731 4.61744 14.4697 4.62213 15.4027C4.62682 16.3357 5.00194 17.2287 5.66498 17.8851C6.32802 18.5415 7.22467 18.9076 8.15766 18.9029C9.09065 18.8982 9.98357 18.5231 10.64 17.8601L19.42 9.00006C19.7871 8.63001 19.9952 8.13127 20 7.61006C19.9977 7.08049 19.7856 6.57341 19.41 6.20006C19.0353 5.82756 18.5284 5.61848 18 5.61848C17.4716 5.61848 16.9647 5.82756 16.59 6.20006L7.75998 15.0001C7.71215 15.045 7.67403 15.0992 7.64797 15.1594C7.62191 15.2196 7.60846 15.2845 7.60846 15.3501C7.60846 15.4157 7.62191 15.4806 7.64797 15.5408C7.67403 15.601 7.71215 15.6552 7.75998 15.7001C7.80487 15.7479 7.85909 15.786 7.91929 15.8121C7.97949 15.8381 8.04439 15.8516 8.10998 15.8516C8.17558 15.8516 8.24048 15.8381 8.30068 15.8121C8.36088 15.786 8.41509 15.7479 8.45998 15.7001L15.89 8.28006C16.0823 8.09309 16.3409 7.99015 16.6091 7.9939C16.8773 7.99765 17.133 8.10778 17.32 8.30006C17.507 8.49235 17.6099 8.75103 17.6061 9.01921C17.6024 9.28738 17.4923 9.54309 17.3 9.73006L9.87998 17.1601C9.53034 17.5106 9.08448 17.7494 8.59894 17.8463C8.11339 17.9431 7.61003 17.8936 7.15267 17.704C6.6953 17.5144 6.30452 17.1933 6.02988 16.7813C5.75524 16.3694 5.6091 15.8852 5.60998 15.3901C5.60885 15.0615 5.67277 14.7359 5.79806 14.4321C5.92335 14.1283 6.10753 13.8523 6.33998 13.6201L15.18 4.78006C15.9426 4.05259 16.956 3.64673 18.01 3.64673C19.0639 3.64673 20.0774 4.05259 20.84 4.78006C21.2119 5.15156 21.5069 5.59271 21.7082 6.0783C21.9095 6.56389 22.0131 7.0844 22.0131 7.61006C22.0131 8.13573 21.9095 8.65623 21.7082 9.14183C21.5069 9.62742 21.2119 10.0686 20.84 10.4401L12 19.2801C11.4894 19.7912 10.883 20.1965 10.2154 20.4728C9.54792 20.749 8.83242 20.8908 8.10998 20.8901Z"/>
    </symbol>

    <symbol id="hash" viewBox="0 0 24 24">
        <path d="M24 0H0V24H24V0Z" fill="white" fill-opacity="0.01"/>
        <path d="M12 1C10.1904 0.998764 8.40838 1.44401 6.81199 2.29627C5.21561 3.14853 3.85414 4.38147 2.84827 5.88582C1.84241 7.39016 1.22323 9.11943 1.04561 10.9203C0.86799 12.7212 1.13742 14.5381 1.83002 16.21C2.07789 16.7876 2.36871 17.3458 2.70002 17.88C2.53024 18.8478 2.29639 19.8032 2.00002 20.74C1.94306 20.9154 1.9357 21.1031 1.97876 21.2824C2.02181 21.4617 2.11361 21.6256 2.24401 21.756C2.3744 21.8864 2.53831 21.9782 2.71761 22.0213C2.89692 22.0643 3.08464 22.057 3.26002 22C4.19991 21.7227 5.15478 21.4991 6.12002 21.33C6.64954 21.6722 7.2084 21.9667 7.79002 22.21C9.2902 22.8112 10.9044 23.0744 12.5179 22.981C14.1313 22.8875 15.7044 22.4397 17.1251 21.6693C18.5459 20.899 19.7794 19.825 20.738 18.5238C21.6966 17.2226 22.3567 15.7262 22.6713 14.141C22.986 12.5558 22.9475 10.9207 22.5585 9.35201C22.1696 7.78336 21.4397 6.31968 20.4209 5.06509C19.4021 3.8105 18.1194 2.79582 16.6639 2.09322C15.2085 1.39062 13.6161 1.01737 12 1ZM12 21C10.8167 21.0006 9.64465 20.7696 8.55002 20.32C8.00893 20.0876 7.49012 19.8065 7.00002 19.48C6.79547 19.3372 6.54912 19.2669 6.30002 19.28C5.6573 19.3205 5.02054 19.4277 4.40002 19.6C4.86002 17.66 4.75002 17.35 4.52002 17C4.19152 16.5111 3.91025 15.9921 3.68002 15.45C2.9399 13.6667 2.79287 11.6927 3.26066 9.81947C3.72845 7.94623 4.78625 6.27308 6.27786 5.04712C7.76946 3.82115 9.61577 3.10737 11.5441 3.01118C13.4725 2.91499 15.3807 3.4415 16.9869 4.51294C18.5931 5.58438 19.8121 7.14396 20.464 8.96135C21.1159 10.7787 21.1661 12.7576 20.6071 14.6057C20.0481 16.4537 18.9096 18.0731 17.3597 19.2245C15.8099 20.3759 13.9308 20.9984 12 21Z"/>
        <path d="M16.69 8.9099H15.25L15.41 7.9999C15.433 7.87055 15.4303 7.73792 15.4021 7.60959C15.3739 7.48127 15.3206 7.35978 15.2454 7.25205C15.1702 7.14432 15.0744 7.05247 14.9637 6.98175C14.853 6.91103 14.7294 6.86283 14.6 6.8399C14.4699 6.81697 14.3366 6.82002 14.2077 6.84889C14.0788 6.87777 13.9569 6.93189 13.8491 7.00813C13.7412 7.08437 13.6495 7.18122 13.5793 7.29309C13.5091 7.40496 13.4618 7.52963 13.44 7.6599L13.22 8.8699H11.76L11.91 7.9999C11.933 7.87055 11.9303 7.73792 11.9021 7.60959C11.8739 7.48127 11.8206 7.35978 11.7454 7.25205C11.6702 7.14432 11.5744 7.05247 11.4637 6.98175C11.353 6.91103 11.2294 6.86283 11.1 6.8399C10.9699 6.81697 10.8366 6.82002 10.7077 6.84889C10.5788 6.87777 10.4569 6.93189 10.3491 7.00813C10.2412 7.08437 10.1495 7.18122 10.0793 7.29309C10.0091 7.40496 9.96175 7.52963 9.93999 7.6599L9.71999 8.9099H8.29999C8.03477 8.9099 7.78042 9.01526 7.59288 9.2028C7.40534 9.39033 7.29999 9.64469 7.29999 9.9099C7.29999 10.1751 7.40534 10.4295 7.59288 10.617C7.78042 10.8045 8.03477 10.9099 8.29999 10.9099H9.36999L8.99999 12.9999H7.29999C7.03477 12.9999 6.78042 13.1053 6.59288 13.2928C6.40534 13.4803 6.29999 13.7347 6.29999 13.9999C6.29999 14.2651 6.40534 14.5195 6.59288 14.707C6.78042 14.8945 7.03477 14.9999 7.29999 14.9999H8.64999L8.47999 15.9999C8.45695 16.1293 8.45963 16.2619 8.48787 16.3902C8.51612 16.5185 8.56937 16.64 8.6446 16.7478C8.71982 16.8555 8.81554 16.9473 8.92628 17.0181C9.03702 17.0888 9.16061 17.137 9.28999 17.1599H9.46999C9.70822 17.1634 9.93986 17.0817 10.1232 16.9295C10.3065 16.7773 10.4295 16.5647 10.47 16.3299L10.7 15.0299H12.17L12 15.9999C11.9769 16.1293 11.9796 16.2619 12.0079 16.3902C12.0361 16.5185 12.0894 16.64 12.1646 16.7478C12.2398 16.8555 12.3355 16.9473 12.4463 17.0181C12.557 17.0888 12.6806 17.137 12.81 17.1599H13C13.2382 17.1634 13.4699 17.0817 13.6532 16.9295C13.8365 16.7773 13.9595 16.5647 14 16.3299L14.23 15.0299H15.74C16.0052 15.0299 16.2596 14.9245 16.4471 14.737C16.6346 14.5495 16.74 14.2951 16.74 14.0299C16.74 13.7647 16.6346 13.5103 16.4471 13.3228C16.2596 13.1353 16.0052 13.0299 15.74 13.0299H14.53L14.9 10.9399H16.69C16.9552 10.9399 17.2096 10.8345 17.3971 10.647C17.5846 10.4595 17.69 10.2051 17.69 9.9399C17.69 9.67469 17.5846 9.42033 17.3971 9.2328C17.2096 9.04526 16.9552 8.9399 16.69 8.9399V8.9099ZM12.5 12.9999H11L11.37 10.9099H12.84L12.5 12.9999Z"/>
    </symbol>

    <symbol id="home" viewBox="0 0 24 24">
        <path d="M24 0H0V24H24V0Z" fill="white" fill-opacity="0.01"/>
        <path d="M22.62 10.22L12.62 2.22004C12.4434 2.08053 12.225 2.00464 12 2.00464C11.775 2.00464 11.5565 2.08053 11.38 2.22004L1.37998 10.22C1.1978 10.392 1.0868 10.6261 1.06895 10.876C1.0511 11.1259 1.1277 11.3734 1.28358 11.5695C1.43947 11.7656 1.6633 11.8961 1.91077 11.9351C2.15825 11.974 2.41134 11.9187 2.61998 11.78L3.49998 11.08V21C3.49998 21.2653 3.60534 21.5196 3.79288 21.7071C3.98041 21.8947 4.23477 22 4.49998 22H19.5C19.7652 22 20.0196 21.8947 20.2071 21.7071C20.3946 21.5196 20.5 21.2653 20.5 21V11.08L21.38 11.78C21.5559 11.9212 21.7744 11.9987 22 12C22.1502 11.9993 22.2983 11.9648 22.4333 11.899C22.5684 11.8333 22.6869 11.7379 22.78 11.62C22.9435 11.4128 23.0184 11.1493 22.9885 10.8871C22.9585 10.6248 22.826 10.385 22.62 10.22ZM10.5 20V15.5H13.5V20H10.5ZM18.5 20H15.5V14.5C15.5 14.2348 15.3946 13.9805 15.2071 13.7929C15.0196 13.6054 14.7652 13.5 14.5 13.5H9.49998C9.23477 13.5 8.98041 13.6054 8.79288 13.7929C8.60534 13.9805 8.49998 14.2348 8.49998 14.5V20H5.49998V9.48004L12 4.28004L18.5 9.48004V20Z"/>
    </symbol>

    <symbol id="user" viewBox="0 0 24 24">
        <path d="M24 0H0V24H24V0Z" fill="white" fill-opacity="0.01"/>
        <path d="M23 12C23 5.935 18.065 1 12 1C5.935 1 1 5.935 1 12C1 15.037 2.238 17.79 4.234 19.783C4.283 19.845 4.345 19.892 4.408 19.941C6.385 21.831 9.056 23 12 23C14.985 23 17.693 21.801 19.677 19.864C19.702 19.84 19.731 19.822 19.753 19.795C21.757 17.801 23 15.043 23 12ZM12 3C16.963 3 21 7.038 21 12C21 13.861 20.432 15.592 19.461 17.028C18.512 14.944 16.409 13.5 14 13.5H10C7.589 13.5 5.487 14.943 4.539 17.028C3.568 15.591 3 13.861 3 12C3 7.038 7.038 3 12 3ZM6.085 18.767C6.433 16.904 8.06 15.5 10 15.5H14C15.938 15.5 17.567 16.906 17.915 18.767C16.331 20.153 14.265 21 12 21C9.735 21 7.669 20.153 6.085 18.767Z"/>
        <path d="M12 12.5C13.93 12.5 15.5 10.93 15.5 9C15.5 7.07 13.93 5.5 12 5.5C10.07 5.5 8.5 7.07 8.5 9C8.5 10.93 10.07 12.5 12 12.5ZM12 7.5C12.827 7.5 13.5 8.173 13.5 9C13.5 9.827 12.827 10.5 12 10.5C11.173 10.5 10.5 9.827 10.5 9C10.5 8.173 11.173 7.5 12 7.5Z"/>
    </symbol>

    <symbol id="logout" viewBox="0 0 24 24">
        <path d="M14.5 8C16.43 8 18 6.43 18 4.5C18 2.57 16.43 1 14.5 1C12.57 1 11 2.57 11 4.5C11 6.43 12.57 8 14.5 8ZM14.5 3C15.327 3 16 3.673 16 4.5C16 5.327 15.327 6 14.5 6C13.673 6 13 5.327 13 4.5C13 3.673 13.673 3 14.5 3Z"/>
        <path d="M20.985 11L17.514 11.052L15.88 10.097C13.776 8.865 11.484 8.019 9.06399 7.585L7.45399 7.3C7.03999 7.227 6.62399 7.42 6.41399 7.784L5.62699 9.147L4.82599 8.685C4.59699 8.553 4.32399 8.518 4.06699 8.585C3.81099 8.654 3.59299 8.822 3.45999 9.051L1.20999 12.948C0.933994 13.427 1.09799 14.038 1.57599 14.314L4.76299 16.154C4.91599 16.242 5.08899 16.288 5.26299 16.288C5.34899 16.288 5.43699 16.276 5.52199 16.254C5.77799 16.186 5.99699 16.018 6.12899 15.788L8.37899 11.891C8.65499 11.413 8.49099 10.801 8.01299 10.525L7.35899 10.147L7.79599 9.391L8.71399 9.554C9.35299 9.669 9.97899 9.825 10.596 10.002L8.99799 12.982L6.42999 16.755C6.04399 17.319 5.50599 17.965 5.03099 18.534C4.57399 19.08 4.17999 19.553 3.91899 19.944C3.61299 20.404 3.73699 21.024 4.19599 21.331C4.36599 21.444 4.55899 21.499 4.74999 21.499C5.07299 21.499 5.38999 21.343 5.58299 21.054C5.78399 20.752 6.16399 20.297 6.56599 19.816C7.06999 19.212 7.64199 18.528 8.08299 17.882L10.078 14.951L13.038 17.295L14.708 22.315C14.848 22.735 15.238 23 15.657 23C15.761 23 15.868 22.983 15.972 22.949C16.496 22.774 16.78 22.208 16.606 21.684L14.93 16.647C14.798 16.274 14.571 15.954 14.278 15.725L11.133 13.235L12.507 10.673C13.318 11.005 14.111 11.378 14.871 11.823L16.521 12.787C16.827 12.959 17.176 13.05 17.544 13.05C17.544 13.05 17.544 13.05 17.545 13.05L21.015 13C21.567 12.992 22.008 12.538 22 11.986C21.992 11.434 21.526 11.007 20.985 11ZM4.89599 13.922L3.44199 13.082L4.69199 10.917L6.14599 11.757L4.89599 13.922Z"/>

    </symbol>

    <symbol id="settings" viewBox="0 0 24 24">
        <path d="M24 0H0V24H24V0Z" fill="white" fill-opacity="0.01"/>
        <path d="M22.707 11.293L20 8.586V5C20 4.448 19.553 4 19 4H15.414L12.707 1.293C12.316 0.901998 11.684 0.901998 11.293 1.293L8.58601 4H5.00001C4.44801 4 4.00001 4.448 4.00001 5V8.586L1.29301 11.293C0.902006 11.684 0.902006 12.316 1.29301 12.707L4.00001 15.414V19C4.00001 19.553 4.44801 20 5.00001 20H8.58601L11.293 22.707C11.488 22.902 11.744 23 12 23C12.256 23 12.512 22.902 12.707 22.707L15.414 20H19C19.553 20 20 19.553 20 19V15.414L22.707 12.707C23.098 12.316 23.098 11.684 22.707 11.293ZM18.293 14.293C18.105 14.48 18 14.734 18 15V18H15C14.734 18 14.48 18.105 14.293 18.293L12 20.586L9.70701 18.293C9.52001 18.105 9.26501 18 9.00001 18H6.00001V15C6.00001 14.734 5.89501 14.48 5.70701 14.293L3.41401 12L5.70701 9.707C5.89501 9.52 6.00001 9.265 6.00001 9V6H9.00001C9.26501 6 9.52001 5.895 9.70701 5.707L12 3.414L14.293 5.707C14.48 5.895 14.734 6 15 6H18V9C18 9.265 18.105 9.52 18.293 9.707L20.586 12L18.293 14.293Z"/>
        <path d="M12 8C9.794 8 8 9.794 8 12C8 14.206 9.794 16 12 16C14.206 16 16 14.206 16 12C16 9.794 14.206 8 12 8ZM12 14C10.897 14 10 13.103 10 12C10 10.897 10.897 10 12 10C13.103 10 14 10.897 14 12C14 13.103 13.103 14 12 14Z"/>

    </symbol>

    <symbol id="help" viewBox="0 0 24 24">
        <path d="M24 0H0V24H24V0Z" fill="white" fill-opacity="0.01"/>
        <path d="M7.741 5.44C7.991 5.226 8.263 5.023 8.557 4.833C8.85 4.643 9.171 4.477 9.518 4.335C9.865 4.193 10.239 4.083 10.641 4.003C11.042 3.923 11.479 3.884 11.952 3.884C12.596 3.884 13.181 3.97 13.71 4.143C14.239 4.316 14.692 4.561 15.071 4.882C15.451 5.202 15.744 5.59 15.95 6.044C16.156 6.498 16.26 7.006 16.26 7.569C16.26 8.132 16.176 8.618 16.01 9.029C15.843 9.44 15.635 9.797 15.386 10.1C15.137 10.403 14.863 10.664 14.563 10.885C14.262 11.105 13.978 11.312 13.711 11.507C13.443 11.701 13.223 11.893 13.05 12.08C12.876 12.268 12.774 12.48 12.74 12.719L12.5 14.34H10.642L10.517 12.533C10.487 12.187 10.539 11.883 10.674 11.619C10.809 11.355 10.991 11.116 11.222 10.9C11.452 10.684 11.709 10.473 11.992 10.267C12.275 10.061 12.54 9.84 12.786 9.602C13.034 9.364 13.239 9.095 13.404 8.796C13.569 8.497 13.651 8.138 13.651 7.719C13.651 7.452 13.602 7.215 13.505 7.005C13.407 6.796 13.274 6.616 13.103 6.464C12.932 6.312 12.726 6.197 12.486 6.118C12.243 6.04 11.983 6 11.705 6C11.289 6 10.937 6.045 10.647 6.135C10.357 6.225 10.111 6.328 9.911 6.443C9.71 6.56 9.54 6.664 9.4 6.758C9.26 6.852 9.137 6.898 9.03 6.898C8.765 6.898 8.572 6.788 8.45 6.568L7.741 5.44ZM10.072 18.472C10.072 18.243 10.108 18.026 10.181 17.822C10.254 17.618 10.352 17.443 10.476 17.296C10.6 17.15 10.748 17.031 10.921 16.942C11.094 16.853 11.28 16.808 11.48 16.808C11.707 16.808 11.917 16.853 12.11 16.942C12.302 17.032 12.472 17.15 12.617 17.296C12.762 17.443 12.877 17.618 12.963 17.822C13.049 18.026 13.092 18.243 13.092 18.472C13.092 18.708 13.049 18.927 12.963 19.127C12.877 19.327 12.762 19.501 12.617 19.648C12.472 19.795 12.303 19.91 12.11 19.993C11.917 20.075 11.707 20.116 11.48 20.116C11.28 20.116 11.094 20.075 10.921 19.993C10.749 19.91 10.6 19.796 10.476 19.648C10.352 19.502 10.254 19.328 10.181 19.127C10.108 18.926 10.072 18.708 10.072 18.472Z"/>

    </symbol>

    <symbol id="edit" viewBox="0 0 24 24">
        <path d="M21.5 22H3.5C3.23478 22 2.98043 21.8946 2.79289 21.7071C2.60536 21.5196 2.5 21.2652 2.5 21C2.5 20.7348 2.60536 20.4804 2.79289 20.2929C2.98043 20.1054 3.23478 20 3.5 20H21.5C21.7652 20 22.0196 20.1054 22.2071 20.2929C22.3946 20.4804 22.5 20.7348 22.5 21C22.5 21.2652 22.3946 21.5196 22.2071 21.7071C22.0196 21.8946 21.7652 22 21.5 22Z"/>
        <path d="M9.16002 18.0001H5.50002C5.2348 18.0001 4.98045 17.8947 4.79291 17.7072C4.60537 17.5196 4.50002 17.2653 4.50002 17.0001V13.3601C4.49926 13.2285 4.52448 13.098 4.57425 12.9762C4.62401 12.8543 4.69734 12.7435 4.79002 12.6501L15.14 2.29006C15.3274 2.10381 15.5808 1.99927 15.845 1.99927C16.1092 1.99927 16.3627 2.10381 16.55 2.29006L20.21 6.00006C20.3963 6.18742 20.5008 6.44087 20.5008 6.70506C20.5008 6.96925 20.3963 7.2227 20.21 7.41006L9.87002 17.7101C9.67838 17.8928 9.42478 17.9964 9.16002 18.0001ZM6.50002 16.0001H8.74002L18.09 6.65006L15.85 4.41006L6.50002 13.7701V16.0001Z"/>

    </symbol>

    <symbol id="slider-arrow" viewBox="0 0 24 24">
        <path d="M18 10.9999H8.42L12.71 6.70994C12.8032 6.6167 12.8772 6.50601 12.9277 6.38419C12.9781 6.26237 13.0041 6.1318 13.0041 5.99994C13.0041 5.86808 12.9781 5.73751 12.9277 5.61569C12.8772 5.49387 12.8032 5.38318 12.71 5.28994C12.6168 5.1967 12.5061 5.12274 12.3842 5.07228C12.2624 5.02182 12.1319 4.99585 12 4.99585C11.8681 4.99585 11.7376 5.02182 11.6158 5.07228C11.4939 5.12274 11.3832 5.1967 11.29 5.28994L5.29 11.2899C5.19065 11.3862 5.11233 11.5019 5.06 11.6299C5.02589 11.7162 5.00564 11.8073 5 11.8999V11.9999C5.00158 12.1306 5.02876 12.2597 5.08 12.3799C5.0781 12.4032 5.0781 12.4266 5.08 12.4499C5.12719 12.5424 5.18419 12.6296 5.25 12.7099L11.25 18.7099C11.343 18.8037 11.4536 18.8781 11.5754 18.9288C11.6973 18.9796 11.828 19.0057 11.96 19.0057C12.092 19.0057 12.2227 18.9796 12.3446 18.9288C12.4664 18.8781 12.577 18.8037 12.67 18.7099C12.7637 18.617 12.8381 18.5064 12.8889 18.3845C12.9397 18.2627 12.9658 18.132 12.9658 17.9999C12.9658 17.8679 12.9397 17.7372 12.8889 17.6154C12.8381 17.4935 12.7637 17.3829 12.67 17.2899L8.41 12.9999H18C18.2652 12.9999 18.5196 12.8946 18.7071 12.707C18.8946 12.5195 19 12.2652 19 11.9999C19 11.7347 18.8946 11.4804 18.7071 11.2928C18.5196 11.1053 18.2652 10.9999 18 10.9999Z"/>

    </symbol>

    <symbol id="square" viewBox="0 0 24 24">
        <path d="M24 0H0V24H24V0Z" fill="white" fill-opacity="0.01"/>
        <path d="M5.43 4H7.5C7.76522 4 8.01957 3.89464 8.20711 3.70711C8.39464 3.51957 8.5 3.26522 8.5 3C8.5 2.73478 8.39464 2.48043 8.20711 2.29289C8.01957 2.10536 7.76522 2 7.5 2H3C2.86932 2.00158 2.74022 2.02876 2.62 2.08C2.49384 2.12559 2.38061 2.20108 2.29 2.3C2.29 2.3 2.29 2.3 2.29 2.36C2.21869 2.43616 2.16117 2.52413 2.12 2.62C2.08089 2.71521 2.06051 2.81707 2.06 2.92C2.0346 2.94216 2.01416 2.96942 2 3V7.5C2 7.76522 2.10536 8.01957 2.29289 8.20711C2.48043 8.39464 2.73478 8.5 3 8.5C3.26522 8.5 3.51957 8.39464 3.70711 8.20711C3.89464 8.01957 4 7.76522 4 7.5V5.4L7.3 8.66C7.38803 8.76058 7.49534 8.84249 7.61557 8.90089C7.7358 8.95928 7.86652 8.99299 8 9C8.13231 8.99945 8.26319 8.97265 8.38507 8.92115C8.50694 8.86966 8.61739 8.79449 8.71 8.7C8.89625 8.51264 9.00079 8.25919 9.00079 7.995C9.00079 7.73081 8.89625 7.47736 8.71 7.29L5.43 4Z"/>
        <path d="M7.3 15.29L4 18.55V16.5C4 16.2348 3.89464 15.9805 3.70711 15.7929C3.51957 15.6054 3.26522 15.5 3 15.5C2.73478 15.5 2.48043 15.6054 2.29289 15.7929C2.10536 15.9805 2 16.2348 2 16.5V21C2 21.2652 2.10536 21.5196 2.29289 21.7071C2.48043 21.8947 2.73478 22 3 22H7.5C7.76522 22 8.01957 21.8947 8.20711 21.7071C8.39464 21.5196 8.5 21.2652 8.5 21C8.5 20.7348 8.39464 20.4805 8.20711 20.2929C8.01957 20.1054 7.76522 20 7.5 20H5.38L8.7 16.71C8.86528 16.5199 8.95271 16.2744 8.94481 16.0226C8.93691 15.7708 8.83427 15.5313 8.65741 15.3519C8.48054 15.1725 8.24248 15.0665 7.99082 15.055C7.73916 15.0435 7.49245 15.1275 7.3 15.29Z"/>
        <path d="M21 2H16.5C16.2348 2 15.9804 2.10536 15.7929 2.29289C15.6054 2.48043 15.5 2.73478 15.5 3C15.5 3.26522 15.6054 3.51957 15.7929 3.70711C15.9804 3.89464 16.2348 4 16.5 4H18.5L15.29 7.24C15.1963 7.33296 15.1219 7.44356 15.0711 7.56542C15.0203 7.68728 14.9942 7.81799 14.9942 7.95C14.9942 8.08201 15.0203 8.21272 15.0711 8.33458C15.1219 8.45644 15.1963 8.56704 15.29 8.66C15.383 8.75373 15.4936 8.82812 15.6154 8.87889C15.7373 8.92966 15.868 8.9558 16 8.9558C16.132 8.9558 16.2627 8.92966 16.3846 8.87889C16.5064 8.82812 16.617 8.75373 16.71 8.66L20 5.36V7.5C20 7.76522 20.1054 8.01957 20.2929 8.20711C20.4804 8.39464 20.7348 8.5 21 8.5C21.2652 8.5 21.5196 8.39464 21.7071 8.20711C21.8946 8.01957 22 7.76522 22 7.5V3C22 2.73478 21.8946 2.48043 21.7071 2.29289C21.5196 2.10536 21.2652 2 21 2Z"/>
        <path d="M21 15.4999C20.7348 15.4999 20.4804 15.6053 20.2929 15.7928C20.1053 15.9803 20 16.2347 20 16.4999V18.4999L16.76 15.2499C16.5717 15.0616 16.3163 14.9558 16.05 14.9558C15.7837 14.9558 15.5283 15.0616 15.34 15.2499C15.1517 15.4382 15.0459 15.6936 15.0459 15.9599C15.0459 16.2262 15.1517 16.4816 15.34 16.6699L18.64 19.9999H16.5C16.2348 19.9999 15.9804 20.1053 15.7929 20.2928C15.6053 20.4803 15.5 20.7347 15.5 20.9999C15.5 21.2651 15.6053 21.5195 15.7929 21.707C15.9804 21.8945 16.2348 21.9999 16.5 21.9999H21C21.2652 21.9999 21.5196 21.8945 21.7071 21.707C21.8946 21.5195 22 21.2651 22 20.9999V16.4999C22 16.2347 21.8946 15.9803 21.7071 15.7928C21.5196 15.6053 21.2652 15.4999 21 15.4999Z"/>

    </symbol>

    <symbol id="star" viewBox="0 0 24 23">
        <path d="M23.9571 8.72031C23.8954 8.49583 23.7617 8.29784 23.5765 8.15679C23.3913 8.01573 23.1649 7.93943 22.9321 7.9396H15.3481C15.3481 7.9396 13.9035 3.49437 13.1865 1.27441C13.1281 1.10977 13.075 0.939822 13.0219 0.775184C12.9422 0.514403 12.7679 0.292801 12.5333 0.153808C12.4889 0.127632 12.4428 0.104563 12.3952 0.0847658H12.3368H12.2996L12.2146 0.00510221C12.1775 0.00253103 12.1402 0.00253103 12.1031 0.00510221H11.8907H11.8216H11.7207H11.6729C11.5147 0.0646407 11.3719 0.159055 11.2551 0.281337C11.1383 0.403619 11.0506 0.550628 10.9984 0.711453V0.711453L8.64572 7.9396H1.06174C0.828941 7.93943 0.602536 8.01573 0.417341 8.15679C0.232147 8.29784 0.0984208 8.49583 0.0367302 8.72031C-0.0189728 8.94689 -0.00113693 9.18533 0.0876569 9.40111C0.176451 9.61688 0.331597 9.79881 0.530645 9.92057L6.57446 14.3446L4.37574 21.0788L4.21642 21.578C3.94025 22.4171 5.01305 23.3306 5.77782 22.7783L11.9969 18.2534L17.7964 22.4703L18.2213 22.7783C18.9861 23.3094 20.0536 22.4171 19.7827 21.578L17.4247 14.3127L23.0489 10.2286L23.4685 9.92057C23.6709 9.80246 23.8286 9.62068 23.917 9.40358C24.0054 9.18648 24.0195 8.94625 23.9571 8.72031Z"/>

    </symbol>

    <symbol id="reviews" viewBox="0 0 24 24">
        <path d="M12 1C9.08262 1 6.28473 2.15893 4.22183 4.22183C2.15893 6.28473 1 9.08262 1 12V22C1 22.2652 1.10536 22.5196 1.29289 22.7071C1.48043 22.8946 1.73478 23 2 23H12C14.9174 23 17.7153 21.8411 19.7782 19.7782C21.8411 17.7153 23 14.9174 23 12C23 9.08262 21.8411 6.28473 19.7782 4.22183C17.7153 2.15893 14.9174 1 12 1ZM12 21H3V12C3 10.22 3.52784 8.47991 4.51677 6.99987C5.50571 5.51983 6.91131 4.36627 8.55585 3.68508C10.2004 3.0039 12.01 2.82567 13.7558 3.17293C15.5016 3.5202 17.1053 4.37737 18.364 5.63604C19.6226 6.89471 20.4798 8.49836 20.8271 10.2442C21.1743 11.99 20.9961 13.7996 20.3149 15.4442C19.6337 17.0887 18.4802 18.4943 17.0001 19.4832C15.5201 20.4722 13.78 21 12 21Z"/>
        <path d="M16 8H7C6.73478 8 6.48043 8.10536 6.29289 8.29289C6.10536 8.48043 6 8.73478 6 9C6 9.26522 6.10536 9.51957 6.29289 9.70711C6.48043 9.89464 6.73478 10 7 10H16C16.2652 10 16.5196 9.89464 16.7071 9.70711C16.8946 9.51957 17 9.26522 17 9C17 8.73478 16.8946 8.48043 16.7071 8.29289C16.5196 8.10536 16.2652 8 16 8Z"/>
        <path d="M16 12H7C6.73478 12 6.48043 12.1054 6.29289 12.2929C6.10536 12.4804 6 12.7348 6 13C6 13.2652 6.10536 13.5196 6.29289 13.7071C6.48043 13.8946 6.73478 14 7 14H16C16.2652 14 16.5196 13.8946 16.7071 13.7071C16.8946 13.5196 17 13.2652 17 13C17 12.7348 16.8946 12.4804 16.7071 12.2929C16.5196 12.1054 16.2652 12 16 12Z"/>
        <path d="M12 16H7C6.73478 16 6.48043 16.1054 6.29289 16.2929C6.10536 16.4804 6 16.7348 6 17C6 17.2652 6.10536 17.5196 6.29289 17.7071C6.48043 17.8946 6.73478 18 7 18H12C12.2652 18 12.5196 17.8946 12.7071 17.7071C12.8946 17.5196 13 17.2652 13 17C13 16.7348 12.8946 16.4804 12.7071 16.2929C12.5196 16.1054 12.2652 16 12 16Z"/>
    </symbol>

    <symbol id="arrow-more" viewBox="0 0 24 24">
        <path d="M12 1C9.82441 1 7.69767 1.64514 5.88873 2.85383C4.07979 4.06253 2.66989 5.78049 1.83733 7.79048C1.00477 9.80047 0.786929 12.0122 1.21137 14.146C1.6358 16.2798 2.68345 18.2398 4.22183 19.7782C5.76021 21.3166 7.72022 22.3642 9.85401 22.7886C11.9878 23.2131 14.1995 22.9952 16.2095 22.1627C18.2195 21.3301 19.9375 19.9202 21.1462 18.1113C22.3549 16.3023 23 14.1756 23 12C23 9.08262 21.8411 6.28473 19.7782 4.22183C17.7153 2.15893 14.9174 1 12 1ZM12 21C10.22 21 8.47992 20.4722 6.99987 19.4832C5.51983 18.4943 4.36628 17.0887 3.68509 15.4442C3.0039 13.7996 2.82567 11.99 3.17294 10.2442C3.5202 8.49836 4.37737 6.89471 5.63604 5.63604C6.89472 4.37737 8.49836 3.5202 10.2442 3.17293C11.99 2.82567 13.7996 3.0039 15.4442 3.68508C17.0887 4.36627 18.4943 5.51983 19.4832 6.99987C20.4722 8.47991 21 10.22 21 12C21 14.3869 20.0518 16.6761 18.364 18.364C16.6761 20.0518 14.387 21 12 21Z"/>
        <path d="M15.79 9.78994L12 13.5899L8.21 9.78994C8.11676 9.6967 8.00607 9.62274 7.88425 9.57228C7.76243 9.52182 7.63186 9.49585 7.5 9.49585C7.36814 9.49585 7.23758 9.52182 7.11575 9.57228C6.99393 9.62274 6.88324 9.6967 6.79 9.78994C6.69676 9.88318 6.6228 9.99387 6.57234 10.1157C6.52188 10.2375 6.49591 10.3681 6.49591 10.4999C6.49591 10.6318 6.52188 10.7624 6.57234 10.8842C6.6228 11.006 6.69676 11.1167 6.79 11.2099L11.29 15.7099C11.383 15.8037 11.4936 15.8781 11.6154 15.9288C11.7373 15.9796 11.868 16.0057 12 16.0057C12.132 16.0057 12.2627 15.9796 12.3846 15.9288C12.5064 15.8781 12.617 15.8037 12.71 15.7099L17.21 11.2099C17.3983 11.0216 17.5041 10.7662 17.5041 10.4999C17.5041 10.2336 17.3983 9.97824 17.21 9.78994C17.0217 9.60164 16.7663 9.49585 16.5 9.49585C16.2337 9.49585 15.9783 9.60164 15.79 9.78994Z"/>
    </symbol>

    <symbol id="map-mark" viewBox="0 0 20 24">
        <path d="M10 6C9.20888 6 8.43552 6.2346 7.77772 6.67412C7.11993 7.11365 6.60723 7.73836 6.30448 8.46927C6.00173 9.20017 5.92252 10.0044 6.07686 10.7804C6.2312 11.5563 6.61216 12.269 7.17157 12.8284C7.73098 13.3878 8.44372 13.7688 9.21964 13.9231C9.99556 14.0775 10.7998 13.9983 11.5307 13.6955C12.2616 13.3928 12.8864 12.8801 13.3259 12.2223C13.7654 11.5645 14 10.7911 14 10C14 8.93913 13.5786 7.92172 12.8284 7.17157C12.0783 6.42143 11.0609 6 10 6ZM10 12C9.60444 12 9.21776 11.8827 8.88886 11.6629C8.55996 11.4432 8.30362 11.1308 8.15224 10.7654C8.00087 10.3999 7.96126 9.99778 8.03843 9.60982C8.1156 9.22186 8.30608 8.86549 8.58579 8.58579C8.86549 8.30608 9.22186 8.1156 9.60982 8.03843C9.99778 7.96126 10.3999 8.00087 10.7654 8.15224C11.1308 8.30362 11.4432 8.55996 11.6629 8.88886C11.8827 9.21776 12 9.60444 12 10C12 10.5304 11.7893 11.0391 11.4142 11.4142C11.0391 11.7893 10.5304 12 10 12Z"/>
        <path d="M10 0C8.68678 0 7.38642 0.258658 6.17317 0.761205C4.95991 1.26375 3.85752 2.00035 2.92893 2.92893C1.05357 4.8043 0 7.34784 0 10C0 18.49 9.13 23.66 9.51 23.87C9.66202 23.9578 9.83446 24.004 10.01 24.004C10.1855 24.004 10.358 23.9578 10.51 23.87C10.87 23.66 20 18.49 20 10C20 7.34784 18.9464 4.8043 17.0711 2.92893C15.1957 1.05357 12.6522 0 10 0V0ZM10 21.83C8.2 20.68 2 16.27 2 10C2 7.87827 2.84285 5.84344 4.34315 4.34315C5.84344 2.84285 7.87827 2 10 2C12.1217 2 14.1566 2.84285 15.6569 4.34315C17.1571 5.84344 18 7.87827 18 10C18 16.27 11.8 20.68 10 21.83Z"/>
    </symbol>

    <symbol id="map-user" viewBox="0 0 22 22">
        <path d="M20.1 21.5001H1.89998C1.71744 21.5014 1.53643 21.4667 1.36729 21.3981C1.19814 21.3295 1.04417 21.2282 0.914165 21.1C0.784162 20.9719 0.680673 20.8194 0.609607 20.6512C0.538542 20.4831 0.501291 20.3026 0.499983 20.1201V19.6501C0.494575 18.9021 0.698977 18.1677 1.08998 17.5301C1.48459 16.9062 2.0186 16.3825 2.64998 16.0001C3.507 15.4827 4.45914 15.1427 5.44998 15.0001C5.93464 14.9325 6.41533 14.8391 6.88998 14.7201C7.22998 14.6301 7.45998 14.5501 7.60998 14.5001C7.60998 14.4201 7.60998 14.3401 7.60998 14.2401C7.48157 13.3316 7.03936 12.4967 6.35998 11.8801C6.14842 11.6597 5.95134 11.4259 5.76998 11.1801C5.26839 10.4659 4.96791 9.63012 4.89998 8.76007C4.88752 8.35484 5.00298 7.95598 5.22998 7.62007C5.10474 6.68424 5.10474 5.7359 5.22998 4.80007C5.34853 3.85395 5.80701 2.9832 6.51998 2.35007C6.49569 2.19099 6.49569 2.02915 6.51998 1.87007C6.58456 1.55855 6.73943 1.27293 6.96528 1.04886C7.19113 0.824792 7.47796 0.672181 7.78998 0.610069C8.00056 0.564723 8.21472 0.537953 8.42998 0.530069C8.97275 0.49486 9.51722 0.49486 10.06 0.530069C13.99 0.830069 15.49 2.25007 15.75 2.53007C16.1701 3.02304 16.4742 3.60397 16.64 4.23007C16.6921 4.40998 16.7288 4.59397 16.75 4.78007C16.8605 5.49445 16.8907 6.21897 16.84 6.94007C16.84 7.15007 16.84 7.36007 16.78 7.60007C16.8763 7.74632 16.9536 7.90426 17.01 8.07007C17.0707 8.2711 17.101 8.48007 17.1 8.69007C17.0502 9.57301 16.7559 10.4247 16.25 11.1501C16.09 11.3701 15.88 11.6001 15.66 11.8501C14.9772 12.464 14.5343 13.3003 14.41 14.2101C14.41 14.3101 14.41 14.3901 14.41 14.4701C14.6457 14.5567 14.8861 14.6301 15.13 14.6901C15.5812 14.8163 16.0384 14.9197 16.5 15.0001C17.5118 15.1469 18.486 15.4864 19.37 16.0001C20.0036 16.3967 20.5374 16.9339 20.93 17.5701C21.3231 18.2242 21.5209 18.9772 21.5 19.7401V20.1401C21.4921 20.5052 21.3408 20.8526 21.0788 21.1071C20.8169 21.3616 20.4652 21.5028 20.1 21.5001ZM2.49998 19.5001H19.5C19.4798 19.1743 19.3803 18.8585 19.21 18.5801C18.9808 18.2106 18.6694 17.8992 18.3 17.6701C17.6507 17.2903 16.9343 17.039 16.19 16.9301C15.6617 16.8534 15.1377 16.75 14.62 16.6201C13.33 16.2901 12.67 15.8901 12.49 15.3301C12.4474 15.268 12.4231 15.1953 12.42 15.1201C12.3684 14.7552 12.3684 14.3849 12.42 14.0201C12.5768 12.677 13.1996 11.4314 14.18 10.5001C14.3362 10.3351 14.4831 10.1614 14.62 9.98007C14.8801 9.59428 15.0447 9.15208 15.1 8.69007L15 8.57007C14.8948 8.44395 14.8195 8.2957 14.7797 8.13639C14.7399 7.97708 14.7365 7.81084 14.77 7.65007C14.8161 7.37538 14.8461 7.09825 14.86 6.82007C14.9075 6.23637 14.8873 5.64914 14.8 5.07007C14.7846 4.96182 14.7612 4.85486 14.73 4.75007C14.6479 4.42065 14.4943 4.11336 14.28 3.85007C14.28 3.85007 13.14 2.76007 9.93998 2.52007C9.50034 2.49506 9.05963 2.49506 8.61998 2.52007C8.64135 2.66261 8.64135 2.80753 8.61998 2.95007C8.59024 3.04111 8.54997 3.12837 8.49998 3.21007C8.34764 3.43668 8.15835 3.63612 7.93998 3.80007C7.56703 4.10195 7.31504 4.52785 7.22998 5.00007C7.2349 5.03992 7.2349 5.08022 7.22998 5.12007C7.10526 5.95879 7.10526 6.81135 7.22998 7.65007C7.29622 7.91468 7.26792 8.19411 7.14998 8.44007C7.0907 8.55523 7.01301 8.65994 6.91998 8.75007C6.97168 9.1974 7.12938 9.62593 7.37998 10.0001C7.51433 10.1835 7.66136 10.3572 7.81998 10.5201C8.79207 11.4412 9.41417 12.6712 9.57998 14.0001C9.63155 14.3649 9.63155 14.7352 9.57998 15.1001C9.56915 15.1659 9.54894 15.2299 9.51998 15.2901C9.41998 15.8201 8.74998 16.2901 7.38998 16.6001C6.59998 16.8001 5.82998 16.9001 5.74998 16.9201C5.04291 17.0221 4.36312 17.2634 3.74998 17.6301C3.37554 17.8562 3.0602 18.1681 2.82998 18.5401C2.64313 18.8283 2.52982 19.1579 2.49998 19.5001ZM7.60998 14.7001V14.8501C7.60631 14.8035 7.60631 14.7567 7.60998 14.7101V14.7001ZM16.45 7.22007H16.5H16.45Z"/>
    </symbol>

    <symbol id="map-user" viewBox="0 0 21 21">
        <path d="M19.89 10.2299H19.75C19.5102 10.1884 19.2966 10.0535 19.1561 9.85482C19.0155 9.65615 18.9594 9.40988 19 9.16992C19.0996 8.44507 19.0554 7.7077 18.87 6.99992C18.6315 6.01554 18.1264 5.11593 17.41 4.39992C16.7918 3.78174 16.0376 3.31686 15.2075 3.0425C14.3775 2.76813 13.4948 2.69191 12.63 2.81992C12.5099 2.83889 12.3873 2.83388 12.2692 2.80518C12.1511 2.77648 12.0398 2.72467 11.9419 2.65273C11.8439 2.58078 11.7612 2.49014 11.6984 2.38604C11.6357 2.28193 11.5942 2.16643 11.5764 2.0462C11.5585 1.92597 11.5647 1.8034 11.5945 1.68557C11.6243 1.56773 11.6772 1.45698 11.75 1.35969C11.8229 1.26241 11.9143 1.18052 12.019 1.11877C12.1237 1.05702 12.2396 1.01663 12.36 0.999924C13.3295 0.850865 14.3192 0.898477 15.27 1.13992C16.5714 1.46819 17.7599 2.14193 18.71 3.08992C19.5309 3.91104 20.1476 4.91334 20.5106 6.01622C20.8736 7.11909 20.9727 8.29177 20.8 9.43992C20.7687 9.65905 20.6595 9.85955 20.4923 10.0047C20.3252 10.1498 20.1113 10.2297 19.89 10.2299Z"/>
        <path d="M16.1 9.82988H15.96C15.7265 9.79509 15.5153 9.67189 15.3701 9.48575C15.225 9.29962 15.1569 9.0648 15.18 8.82988C15.2395 8.50386 15.2203 8.16833 15.124 7.85124C15.0276 7.53415 14.8569 7.24467 14.626 7.00693C14.3951 6.76918 14.1107 6.59005 13.7966 6.48446C13.4824 6.37887 13.1476 6.34987 12.82 6.39988C12.6999 6.41885 12.5773 6.41384 12.4592 6.38514C12.3411 6.35644 12.2298 6.30462 12.1319 6.23268C12.0339 6.16074 11.9512 6.0701 11.8884 5.96599C11.8257 5.86189 11.7842 5.74638 11.7664 5.62616C11.7485 5.50593 11.7547 5.38335 11.7845 5.26552C11.8143 5.14769 11.8672 5.03693 11.94 4.93965C12.0129 4.84236 12.1043 4.76048 12.209 4.69873C12.3137 4.63698 12.4296 4.59658 12.55 4.57988C13.1521 4.49177 13.7665 4.54507 14.3445 4.73556C14.9225 4.92604 15.4482 5.24849 15.88 5.67736C16.3118 6.10622 16.6378 6.62973 16.8322 7.20642C17.0266 7.78311 17.084 8.39714 17 8.99988C16.9758 9.22373 16.8713 9.43123 16.7058 9.58386C16.5403 9.7365 16.325 9.82391 16.1 9.82988Z"/>
        <path d="M16.26 20.67C15.9571 20.669 15.6565 20.6183 15.37 20.52C12.56 19.57 8.66998 17.91 6.11998 15.36C3.56998 12.81 1.91998 8.92997 0.999982 6.11997C0.855941 5.70981 0.81345 5.27086 0.876147 4.84069C0.938844 4.41052 1.10486 4.00195 1.35998 3.64997C1.62278 3.28787 1.96688 2.99247 2.3646 2.78753C2.76232 2.58259 3.20258 2.47383 3.64998 2.46997H6.18998C6.53391 2.47091 6.87126 2.56421 7.1668 2.74012C7.46233 2.91603 7.70519 3.1681 7.86998 3.46997L9.08998 5.67997C9.2379 5.9551 9.31533 6.2626 9.31533 6.57497C9.31533 6.88734 9.2379 7.19484 9.08998 7.46997L8.08998 9.46997C8.36976 10.383 8.86344 11.2161 9.52998 11.9C10.2235 12.581 11.0707 13.0851 12 13.37L14 12.37C14.2759 12.2246 14.5831 12.1486 14.895 12.1486C15.2069 12.1486 15.5141 12.2246 15.79 12.37L18 13.62C18.3019 13.7848 18.5539 14.0276 18.7298 14.3232C18.9057 14.6187 18.999 14.956 19 15.3V17.84C19.0012 18.2914 18.8959 18.7368 18.6926 19.14C18.4893 19.5431 18.1937 19.8925 17.83 20.16C17.3733 20.4909 16.8239 20.6694 16.26 20.67ZM3.64998 4.31997C3.49051 4.31797 3.33288 4.35414 3.19023 4.42546C3.04758 4.49679 2.92406 4.60119 2.82998 4.72997C2.74669 4.84363 2.69225 4.97582 2.67134 5.11518C2.65044 5.25453 2.6637 5.39687 2.70998 5.52997C3.43998 7.67997 4.99998 11.65 7.42998 14.06C9.85998 16.47 13.81 18.06 15.96 18.77C16.0921 18.8185 16.2342 18.8339 16.3737 18.8147C16.5132 18.7955 16.6458 18.7424 16.76 18.66C16.8888 18.5659 16.9932 18.4424 17.0645 18.2997C17.1358 18.1571 17.172 17.9994 17.17 17.84V15.3L14.92 14L12.49 15.18C12.3076 15.2713 12.1001 15.2994 11.9 15.26C10.5228 14.941 9.25999 14.2491 8.24998 13.26C7.26669 12.2417 6.57582 10.9775 6.24998 9.59997C6.19888 9.40002 6.21649 9.1887 6.29998 8.99997L7.47998 6.62997L6.18998 4.31997H3.64998Z"/>

    </symbol>

    <symbol id="map-mail" viewBox="0 0 22 16">
        <path d="M21 2.93006C21.0096 2.84365 21.0096 2.75646 21 2.67006C20.9184 1.9329 20.5667 1.25208 20.0127 0.759009C19.4587 0.265935 18.7417 -0.00444391 18 5.526e-05H4.00001C3.25682 -0.00418353 2.53851 0.267592 1.98426 0.762723C1.43001 1.25785 1.07927 1.94109 1.00001 2.68006C0.990149 2.7631 0.990149 2.84701 1.00001 2.93006V3.00006V13.0001C1.00001 13.7957 1.31608 14.5588 1.87869 15.1214C2.4413 15.684 3.20436 16.0001 4.00001 16.0001H18C18.7957 16.0001 19.5587 15.684 20.1213 15.1214C20.6839 14.5588 21 13.7957 21 13.0001V3.00006C21 3.00006 21 3.00006 21 2.93006ZM19 12.5901L15 8.59006L19 5.07006V12.5901ZM3.00001 5.05006L7.00001 8.57006L3.00001 12.5701V5.05006ZM8.53001 9.89006L9.01001 10.3101C9.57026 10.7805 10.2784 11.0384 11.01 11.0384C11.7416 11.0384 12.4498 10.7805 13.01 10.3101L13.49 9.89006L17.59 14.0001H4.41001L8.53001 9.89006ZM4.00001 2.00006H18C18.1765 2.00312 18.349 2.05284 18.5001 2.14417C18.6511 2.2355 18.7753 2.36519 18.86 2.52006L11.67 8.81006C11.4753 8.95153 11.2407 9.02772 11 9.02772C10.7593 9.02772 10.5248 8.95153 10.33 8.81006L3.14001 2.52006C3.22471 2.36519 3.34889 2.2355 3.49994 2.14417C3.65099 2.05284 3.82352 2.00312 4.00001 2.00006Z"/>
    </symbol>

    <symbol id="viber" viewBox="0 0 24 24">
        <g clip-path="url(#clip0_725_43)">
        <path d="M24 12C24 14.3734 23.2962 16.6935 21.9776 18.6668C20.6591 20.6402 18.7849 22.1783 16.5922 23.0866C14.3995 23.9948 11.9867 24.2324 9.65892 23.7694C7.33115 23.3064 5.19295 22.1635 3.51472 20.4853C1.83649 18.8071 0.693605 16.6689 0.230582 14.3411C-0.232441 12.0133 0.00519943 9.60051 0.913451 7.4078C1.8217 5.21509 3.35977 3.34094 5.33316 2.02237C7.30655 0.703789 9.62663 0 12 0C15.1826 0 18.2348 1.26428 20.4853 3.51472C22.7357 5.76516 24 8.8174 24 12Z" fill="#9D50AA"/>
        <path fill-rule="evenodd" clip-rule="evenodd" d="M15.45 18.3299C14.9816 18.3359 14.5154 18.2649 14.07 18.1199C11.1455 17.2282 8.61485 15.3612 6.90001 12.8299C6.15208 11.9293 5.62169 10.8686 5.35001 9.72989C5.20882 9.08193 5.24584 8.40782 5.45714 7.77922C5.66843 7.15061 6.0461 6.59101 6.55001 6.15989C6.80724 5.99205 7.09816 5.88267 7.40225 5.83947C7.70635 5.79628 8.01621 5.82032 8.31001 5.90989C8.45259 5.98482 8.56285 6.10931 8.62001 6.25989L9.76001 8.98989C9.79664 9.07343 9.81555 9.16367 9.81555 9.25489C9.81555 9.34612 9.79664 9.43635 9.76001 9.51989C9.54929 9.92636 9.27215 10.2948 8.94001 10.6099C8.83002 10.7014 8.76087 10.8329 8.74774 10.9754C8.73462 11.1179 8.77859 11.2598 8.87001 11.3699C9.89668 13.1293 11.4851 14.4923 13.38 15.2399C13.4961 15.3074 13.6337 15.3274 13.7642 15.2957C13.8947 15.264 14.0078 15.1831 14.08 15.0699C14.41 14.6699 14.75 14.2799 15.08 13.8599C15.1153 13.798 15.1624 13.7436 15.2188 13.7C15.2751 13.6564 15.3396 13.6244 15.4084 13.6058C15.4772 13.5872 15.5489 13.5824 15.6196 13.5917C15.6902 13.601 15.7584 13.6242 15.82 13.6599L17.75 14.5599L18.18 14.7699C18.84 15.0999 18.83 15.0999 18.77 15.7699C18.6944 16.3868 18.4172 16.9614 17.9813 17.4044C17.5455 17.8475 16.9755 18.1341 16.36 18.2199C16.0652 18.3083 15.7574 18.3456 15.45 18.3299Z" fill="#FDFDFD"/>
        <path fill-rule="evenodd" clip-rule="evenodd" d="M16.64 7.48011C17.1421 7.93745 17.541 8.49653 17.81 9.12011C18.0386 9.60949 18.2001 10.1275 18.29 10.6601C18.29 10.7701 18.35 10.8901 18.29 10.9901C17.99 10.9901 17.7 10.9901 17.41 11.0501C17.3 11.0501 17.27 11.0501 17.25 10.9201C17.1326 9.93222 16.6975 9.00923 16.01 8.2901C15.5408 7.77295 14.9632 7.36585 14.3184 7.0979C13.6736 6.82995 12.9775 6.70777 12.28 6.7401H12.09V5.7401C12.16 5.6301 12.27 5.6501 12.37 5.6501C12.9754 5.63933 13.5789 5.72025 14.16 5.8901C14.6376 6.02977 15.0949 6.23149 15.52 6.4901C15.6521 6.57126 15.776 6.66504 15.89 6.77011L16.27 7.09011L16.64 7.48011Z" fill="white"/>
        <path fill-rule="evenodd" clip-rule="evenodd" d="M15.23 8.3099C16.0283 8.9789 16.5517 9.91892 16.7 10.9499C16.7 11.0699 16.7 11.1199 16.56 11.1199C16.42 11.1199 16.04 11.1199 15.78 11.1899C15.7 11.1899 15.67 11.1899 15.66 11.0899C15.5521 10.3109 15.1611 9.59884 14.5616 9.08976C13.9622 8.58067 13.1962 8.31017 12.41 8.32989C12.3 8.32989 12.26 8.32989 12.26 8.18989C12.26 8.04989 12.26 7.65989 12.19 7.39989C12.19 7.30989 12.19 7.27989 12.3 7.27989C13.3719 7.23929 14.4193 7.60747 15.23 8.3099Z" fill="white"/>
        <path fill-rule="evenodd" clip-rule="evenodd" d="M14.14 11.3199C14.098 10.9168 13.9082 10.5435 13.6072 10.272C13.3062 10.0006 12.9153 9.85021 12.51 9.84992C12.43 9.84992 12.4 9.84992 12.39 9.74992C12.39 9.48992 12.39 9.21992 12.32 8.95992C12.32 8.87992 12.32 8.85992 12.41 8.84992C13.0648 8.83998 13.701 9.06745 14.201 9.49026C14.701 9.91307 15.031 10.5026 15.13 11.1499C15.13 11.2299 15.13 11.2299 15.05 11.2399L14.14 11.3199Z" fill="white"/>
        </g>
        <defs>
        <clipPath id="clip0_725_43">
        <rect width="24" height="24" fill="white"/>
        </clipPath>
        </defs>
    </symbol>

    <symbol id="whatsapp" viewBox="0 0 24 24">
        <g clip-path="url(#clip0_725_49)">
        <path d="M24 12.01C24 14.3834 23.2962 16.7035 21.9776 18.6769C20.6591 20.6502 18.7849 22.1883 16.5922 23.0966C14.3995 24.0048 11.9867 24.2425 9.65892 23.7794C7.33115 23.3164 5.19295 22.1735 3.51472 20.4953C1.83649 18.8171 0.693605 16.6789 0.230582 14.3511C-0.232441 12.0233 0.00519961 9.61052 0.913451 7.41781C1.8217 5.2251 3.35977 3.35095 5.33316 2.03238C7.30655 0.713798 9.62663 0.0100098 12 0.0100098C15.1826 0.0100098 18.2348 1.27429 20.4853 3.52473C22.7357 5.77516 24 8.82741 24 12.01Z" fill="#0D9F16"/>
        <path fill-rule="evenodd" clip-rule="evenodd" d="M18.94 10.3299C18.5751 8.76268 17.6887 7.36587 16.426 6.36841C15.1632 5.37095 13.5991 4.83201 11.99 4.83993C11.5296 4.83795 11.0704 4.88488 10.62 4.97993C9.52622 5.19803 8.49911 5.67038 7.62164 6.35881C6.74418 7.04724 6.04097 7.93244 5.56885 8.94288C5.09673 9.95332 4.86893 11.0606 4.90387 12.1754C4.93882 13.2901 5.23551 14.381 5.76999 15.3599C5.79172 15.4122 5.8029 15.4683 5.8029 15.5249C5.8029 15.5816 5.79172 15.6376 5.76999 15.6899C5.45999 16.7999 5.15999 17.9099 4.85999 19.0099C4.85999 19.1999 4.85999 19.1999 4.98999 19.1499L8.43999 18.2399C8.5241 18.2102 8.61587 18.2102 8.69999 18.2399C10.1363 18.9958 11.7906 19.2292 13.38 18.8999C14.3138 18.7139 15.2009 18.3426 15.9889 17.8082C16.7769 17.2737 17.4499 16.5868 17.9681 15.788C18.4864 14.9892 18.8393 14.0947 19.0063 13.1573C19.1732 12.2199 19.1506 11.2585 18.94 10.3299ZM12.99 17.7899C12.72 17.8441 12.4453 17.8709 12.17 17.8699C11.0409 17.8975 9.92742 17.6027 8.95999 17.0199C8.90201 16.9931 8.83888 16.9791 8.77499 16.9791C8.71109 16.9791 8.64796 16.9931 8.58999 17.0199L6.68999 17.5199C6.55999 17.5199 6.54999 17.5199 6.57999 17.4099C6.74999 16.8099 6.90999 16.2099 7.07999 15.6099C7.10455 15.5369 7.11192 15.4592 7.10151 15.3829C7.09111 15.3066 7.0632 15.2337 7.01999 15.1699C6.37648 14.1765 6.05176 13.0101 6.08929 11.8271C6.12682 10.644 6.5248 9.50061 7.22999 8.54993C7.87474 7.59849 8.79524 6.86718 9.86782 6.45424C10.9404 6.0413 12.1137 5.96651 13.23 6.23993C14.3527 6.43596 15.3889 6.9699 16.2001 7.77041C17.0114 8.57093 17.559 9.59991 17.77 10.7199C17.9394 11.4995 17.9489 12.3053 17.7981 13.0886C17.6472 13.8719 17.3391 14.6165 16.8923 15.2774C16.4455 15.9382 15.8693 16.5016 15.1986 16.9335C14.5278 17.3653 13.7765 17.6567 12.99 17.7899Z" fill="#FCFCFC"/>
        <path fill-rule="evenodd" clip-rule="evenodd" d="M13.85 15.37C13.5994 15.3677 13.3504 15.3307 13.11 15.26C11.5456 14.7859 10.1906 13.7908 9.27001 12.44C8.86621 11.9585 8.57877 11.3905 8.43001 10.78C8.35557 10.4296 8.37662 10.0656 8.49096 9.72607C8.6053 9.38656 8.80874 9.08399 9.08001 8.85C9.21939 8.76501 9.37477 8.70961 9.53649 8.68725C9.6982 8.66488 9.86279 8.67603 10.02 8.71999C10.0985 8.7597 10.1592 8.82754 10.19 8.91C10.4 9.4 10.6 9.90999 10.8 10.38C10.8193 10.4242 10.8292 10.4718 10.8292 10.52C10.8292 10.5682 10.8193 10.6158 10.8 10.66C10.6889 10.8808 10.54 11.0805 10.36 11.25C10.3087 11.3039 10.28 11.3755 10.28 11.45C10.28 11.5245 10.3087 11.5961 10.36 11.65C10.9071 12.598 11.7606 13.3315 12.78 13.73C12.8426 13.7674 12.9173 13.779 12.9883 13.7622C13.0593 13.7454 13.1209 13.7015 13.16 13.64C13.33 13.43 13.52 13.21 13.68 12.99C13.6985 12.956 13.7239 12.9261 13.7546 12.9024C13.7852 12.8787 13.8205 12.8616 13.8581 12.8522C13.8957 12.8428 13.9348 12.8413 13.973 12.8478C14.0112 12.8543 14.0476 12.8687 14.08 12.89C14.43 13.04 14.77 13.21 15.08 13.37L15.31 13.48C15.66 13.65 15.66 13.66 15.63 14.04C15.57 14.8 15 15.17 14.33 15.36C14.1718 15.3907 14.0094 15.3941 13.85 15.37Z" fill="#FDFDFD"/>
        </g>
        <defs>
        <clipPath id="clip0_725_49">
        <rect width="24" height="24" fill="white"/>
        </clipPath>
        </defs>

    </symbol>

    <symbol id="skype" viewBox="0 0 24 24">
        <g clip-path="url(#clip0_725_89)">
        <path d="M24.05 12C24.05 14.3734 23.3462 16.6935 22.0276 18.6668C20.7091 20.6402 18.8349 22.1783 16.6422 23.0866C14.4495 23.9948 12.0367 24.2324 9.70891 23.7694C7.38113 23.3064 5.24294 22.1635 3.56471 20.4853C1.88648 18.8071 0.743593 16.6689 0.28057 14.3411C-0.182453 12.0133 0.0551872 9.60051 0.963439 7.4078C1.87169 5.21509 3.40977 3.34094 5.38315 2.02236C7.35654 0.703788 9.67662 0 12.05 0C15.2326 0 18.2848 1.26428 20.5353 3.51472C22.7857 5.76516 24.05 8.8174 24.05 12Z" fill="#01A7FF"/>
        <path d="M18.65 13.1899C18.6543 13.2164 18.6543 13.2434 18.65 13.2699V13.1199V13.1899C18.7305 12.7849 18.7707 12.3729 18.77 11.9599C18.7725 10.6313 18.3816 9.33158 17.6467 8.22469C16.9117 7.1178 15.8655 6.25322 14.64 5.73992C13.8221 5.38669 12.941 5.20299 12.05 5.19992C11.6205 5.19971 11.192 5.23988 10.77 5.31992H10.84H10.7H10.77C10.1606 4.9954 9.4775 4.83417 8.78727 4.85191C8.09704 4.86964 7.42315 5.06574 6.83118 5.42113C6.2392 5.77652 5.7493 6.27909 5.40913 6.87994C5.06897 7.48079 4.89013 8.15946 4.89001 8.84992C4.89248 9.52941 5.068 10.1971 5.40002 10.7899C5.40002 10.7899 5.40002 10.7399 5.40002 10.7199V10.8599V10.7899C5.33156 11.1728 5.29809 11.561 5.30002 11.9499C5.29823 12.8397 5.47422 13.7209 5.81767 14.5417C6.16112 15.3626 6.6651 16.1065 7.30002 16.7299C7.92509 17.3626 8.66937 17.8651 9.48982 18.2084C10.3103 18.5517 11.1906 18.7289 12.08 18.7299C12.4755 18.7314 12.8704 18.6979 13.26 18.6299H13.19H13.34H13.26C13.8693 18.9817 14.5605 19.1665 15.264 19.1658C15.9675 19.1651 16.6584 18.9789 17.2669 18.626C17.8755 18.273 18.3802 17.7658 18.7301 17.1555C19.08 16.5452 19.2628 15.8534 19.26 15.1499C19.2732 14.4495 19.097 13.7585 18.75 13.1499L18.65 13.1899ZM12.05 16.0999C9.65002 16.0999 8.58002 14.9199 8.58002 14.0399C8.5771 13.9363 8.5957 13.8332 8.63464 13.7371C8.67357 13.6411 8.732 13.5541 8.80624 13.4818C8.88047 13.4094 8.96889 13.3532 9.06593 13.3168C9.16296 13.2803 9.26651 13.2644 9.37002 13.2699C10.37 13.2699 10.14 14.7399 12.05 14.7399C13.05 14.7399 13.58 14.2099 13.58 13.6599C13.58 13.3399 13.42 12.9699 12.77 12.8099L10.63 12.2799C8.91002 11.8499 8.63002 10.9199 8.63002 10.0399C8.63002 8.22992 10.34 7.54992 11.94 7.54992C13.54 7.54992 15.17 8.35992 15.17 9.44992C15.1638 9.55649 15.1361 9.66069 15.0885 9.75624C15.041 9.8518 14.9745 9.93672 14.8932 10.0059C14.8119 10.075 14.7174 10.127 14.6154 10.1586C14.5135 10.1903 14.4062 10.2009 14.3 10.1899C13.42 10.1899 13.58 8.97992 11.82 8.97992C10.94 8.97992 10.46 9.36992 10.46 9.97992C10.46 10.5899 11.15 10.7299 11.75 10.8699L13.33 11.2199C15.05 11.5399 15.45 12.5399 15.45 13.5399C15.45 14.9999 14.32 16.0999 12.05 16.0999ZM13.12 18.5399H13.19H13.27H13.12ZM18.64 13.2299C18.6443 13.2034 18.6443 13.1764 18.64 13.1499V13.0799V13.2299ZM5.36002 10.7299C5.36002 10.7299 5.36002 10.7299 5.36002 10.7999V10.8699V10.7299ZM10.79 5.35992H10.72H10.65H10.79Z" fill="white"/>
        </g>
        <defs>
        <clipPath id="clip0_725_89">
        <rect width="24" height="24" fill="white"/>
        </clipPath>
        </defs>

    </symbol>

    <symbol id="telegram" viewBox="0 0 24 24">
        <g clip-path="url(#clip0_725_92)">
        <path d="M24 12.01C24 14.3834 23.2962 16.7035 21.9776 18.6769C20.6591 20.6502 18.7849 22.1883 16.5922 23.0966C14.3995 24.0048 11.9867 24.2425 9.65892 23.7794C7.33115 23.3164 5.19295 22.1735 3.51472 20.4953C1.83649 18.8171 0.693605 16.6789 0.230582 14.3511C-0.232441 12.0233 0.00519943 9.61052 0.913451 7.41781C1.8217 5.2251 3.35977 3.35095 5.33316 2.03237C7.30655 0.713796 9.62663 0.0100098 12 0.0100098C15.1826 0.0100098 18.2348 1.27429 20.4853 3.52473C22.7357 5.77516 24 8.82741 24 12.01Z" fill="#007AE5"/>
        <path d="M17.55 7.23005C17.55 7.09005 17.45 7.06005 17.36 7.03005C17.1995 6.98673 17.0305 6.98673 16.87 7.03005C16.87 7.03005 5.76 11.03 5.12 11.47C4.99 11.56 4.94 11.62 4.92 11.68C4.89155 11.7702 4.89973 11.868 4.94276 11.9522C4.9858 12.0364 5.06024 12.1003 5.15 12.13L8.01 13.07C8.05959 13.079 8.1104 13.079 8.16 13.07C8.81 12.66 14.71 8.93005 15.05 8.81005C15.05 8.81005 15.14 8.81005 15.13 8.81005C15 9.29005 9.87 13.81 9.87 13.81L9.61 16.65C9.61 16.65 9.5 17.52 10.37 16.65C10.98 16.03 11.57 15.52 11.87 15.27C12.87 15.95 13.87 16.7 14.37 17.09C14.5255 17.2401 14.7339 17.3228 14.95 17.32C15.38 17.32 15.51 16.82 15.51 16.82C15.51 16.82 17.51 8.68005 17.6 7.59005C17.6 7.48005 17.6 7.41005 17.6 7.34005C17.586 7.30221 17.5693 7.26545 17.55 7.23005Z" fill="white"/>
        </g>
        <defs>
        <clipPath id="clip0_725_92">
        <rect width="24" height="24" fill="white"/>
        </clipPath>
        </defs>
    </symbol>
</svg>
