<svg version="1.1" xmlns="http://www.w3.org/2000/svg" xmlns:xlink="http://www.w3.org/1999/xlink">

    <symbol id="arrow-right" viewBox="0 0 16 12">
        <path d="M15.92 6.37994C16.02 6.13648 16.02 5.8634 15.92 5.61994C15.8724 5.49719 15.801 5.38505 15.71 5.28994L11.71 1.28994C11.6168 1.1967 11.5061 1.12274 11.3842 1.07228C11.2624 1.02182 11.1319 0.99585 11 0.99585C10.7337 0.99585 10.4783 1.10164 10.29 1.28994C10.1968 1.38318 10.1228 1.49387 10.0723 1.61569C10.0219 1.73751 9.99591 1.86808 9.99591 1.99994C9.99591 2.26624 10.1017 2.52164 10.29 2.70994L12.59 4.99994H1C0.734784 4.99994 0.48043 5.1053 0.292893 5.29283C0.105357 5.48037 0 5.73472 0 5.99994C0 6.26516 0.105357 6.51951 0.292893 6.70705C0.48043 6.89458 0.734784 6.99994 1 6.99994H12.59L10.29 9.28994C10.1963 9.38291 10.1219 9.4935 10.0711 9.61536C10.0203 9.73722 9.9942 9.86793 9.9942 9.99994C9.9942 10.132 10.0203 10.2627 10.0711 10.3845C10.1219 10.5064 10.1963 10.617 10.29 10.7099C10.383 10.8037 10.4936 10.8781 10.6154 10.9288C10.7373 10.9796 10.868 11.0057 11 11.0057C11.132 11.0057 11.2627 10.9796 11.3846 10.9288C11.5064 10.8781 11.617 10.8037 11.71 10.7099L15.71 6.70994C15.801 6.61484 15.8724 6.50269 15.92 6.37994Z"/>
    </symbol>

    <symbol id="label" viewBox="0 0 24 24">
        <path d="M24 0H0V24H24V0Z" fill="white" fill-opacity="0.01"/>
        <path d="M20 23C19.8401 23.0006 19.6823 22.9629 19.54 22.89L12 19L4.46001 22.9C4.30667 22.9795 4.13536 23.0178 3.96278 23.0114C3.79019 23.005 3.62221 22.954 3.47519 22.8634C3.32817 22.7727 3.20713 22.6456 3.12386 22.4943C3.04059 22.343 2.99792 22.1727 3.00001 22V3C3.00001 2.46957 3.21073 1.96086 3.5858 1.58579C3.96087 1.21071 4.46958 1 5.00001 1H19C19.5304 1 20.0392 1.21071 20.4142 1.58579C20.7893 1.96086 21 2.46957 21 3V22C21 22.2652 20.8947 22.5196 20.7071 22.7071C20.5196 22.8946 20.2652 23 20 23ZM12 16.86C12.1599 16.8594 12.3177 16.8971 12.46 16.97L19 20.36V3H5.00001V20.36L11.54 17C11.6797 16.9166 11.8376 16.8686 12 16.86Z"/>
        <path d="M16 10H8C7.73478 10 7.48043 9.89464 7.29289 9.70711C7.10536 9.51957 7 9.26522 7 9C7 8.73478 7.10536 8.48043 7.29289 8.29289C7.48043 8.10536 7.73478 8 8 8H16C16.2652 8 16.5196 8.10536 16.7071 8.29289C16.8946 8.48043 17 8.73478 17 9C17 9.26522 16.8946 9.51957 16.7071 9.70711C16.5196 9.89464 16.2652 10 16 10Z"/>
    </symbol>

    <symbol id="links1" viewBox="0 0 24 24">
        <path d="M24 0H0V24H24V0Z" fill="white" fill-opacity="0.01"/>
        <path d="M4 7.49994C3.8684 7.5007 3.73793 7.47548 3.6161 7.42571C3.49426 7.37595 3.38344 7.30262 3.29 7.20994L1.79 5.70994C1.6017 5.52164 1.49591 5.26624 1.49591 4.99994C1.49591 4.73364 1.6017 4.47824 1.79 4.28994C1.97831 4.10164 2.2337 3.99585 2.5 3.99585C2.7663 3.99585 3.0217 4.10164 3.21 4.28994L4 5.08994L6.29 2.78994C6.47831 2.60164 6.7337 2.49585 7 2.49585C7.2663 2.49585 7.5217 2.60164 7.71 2.78994C7.89831 2.97824 8.00409 3.23364 8.00409 3.49994C8.00409 3.76624 7.89831 4.02164 7.71 4.20994L4.71 7.20994C4.61656 7.30262 4.50575 7.37595 4.38391 7.42571C4.26207 7.47548 4.13161 7.5007 4 7.49994Z"/>
        <path d="M4 14.4999C3.8684 14.5007 3.73793 14.4755 3.6161 14.4257C3.49426 14.3759 3.38344 14.3026 3.29 14.2099L1.79 12.7099C1.6017 12.5216 1.49591 12.2662 1.49591 11.9999C1.49591 11.7336 1.6017 11.4782 1.79 11.2899C1.97831 11.1016 2.2337 10.9958 2.5 10.9958C2.7663 10.9958 3.0217 11.1016 3.21 11.2899L4 12.0899L6.29 9.78994C6.47831 9.60164 6.7337 9.49585 7 9.49585C7.2663 9.49585 7.5217 9.60164 7.71 9.78994C7.89831 9.97824 8.00409 10.2336 8.00409 10.4999C8.00409 10.7662 7.89831 11.0216 7.71 11.2099L4.71 14.2099C4.61656 14.3026 4.50575 14.3759 4.38391 14.4257C4.26207 14.4755 4.13161 14.5007 4 14.4999Z"/>
        <path d="M4 21.4999C3.8684 21.5007 3.73793 21.4755 3.6161 21.4257C3.49426 21.3759 3.38344 21.3026 3.29 21.2099L1.79 19.7099C1.6017 19.5216 1.49591 19.2662 1.49591 18.9999C1.49591 18.7336 1.6017 18.4782 1.79 18.2899C1.97831 18.1016 2.2337 17.9958 2.5 17.9958C2.7663 17.9958 3.0217 18.1016 3.21 18.2899L4 19.0899L6.29 16.7899C6.47831 16.6016 6.7337 16.4958 7 16.4958C7.2663 16.4958 7.5217 16.6016 7.71 16.7899C7.89831 16.9782 8.00409 17.2336 8.00409 17.4999C8.00409 17.7662 7.89831 18.0216 7.71 18.2099L4.71 21.2099C4.61656 21.3026 4.50575 21.3759 4.38391 21.4257C4.26207 21.4755 4.13161 21.5007 4 21.4999Z"/>
        <path d="M21.5 13H10.5C10.2348 13 9.98043 12.8946 9.79289 12.7071C9.60536 12.5196 9.5 12.2652 9.5 12C9.5 11.7348 9.60536 11.4804 9.79289 11.2929C9.98043 11.1054 10.2348 11 10.5 11H21.5C21.7652 11 22.0196 11.1054 22.2071 11.2929C22.3946 11.4804 22.5 11.7348 22.5 12C22.5 12.2652 22.3946 12.5196 22.2071 12.7071C22.0196 12.8946 21.7652 13 21.5 13Z"/>
        <path d="M21.5 20H10.5C10.2348 20 9.98043 19.8946 9.79289 19.7071C9.60536 19.5196 9.5 19.2652 9.5 19C9.5 18.7348 9.60536 18.4804 9.79289 18.2929C9.98043 18.1054 10.2348 18 10.5 18H21.5C21.7652 18 22.0196 18.1054 22.2071 18.2929C22.3946 18.4804 22.5 18.7348 22.5 19C22.5 19.2652 22.3946 19.5196 22.2071 19.7071C22.0196 19.8946 21.7652 20 21.5 20Z"/>
        <path d="M21.5 6H10.5C10.2348 6 9.98043 5.89464 9.79289 5.70711C9.60536 5.51957 9.5 5.26522 9.5 5C9.5 4.73478 9.60536 4.48043 9.79289 4.29289C9.98043 4.10536 10.2348 4 10.5 4H21.5C21.7652 4 22.0196 4.10536 22.2071 4.29289C22.3946 4.48043 22.5 4.73478 22.5 5C22.5 5.26522 22.3946 5.51957 22.2071 5.70711C22.0196 5.89464 21.7652 6 21.5 6Z"/>
    </symbol>

    <symbol id="links2" viewBox="0 0 24 24">
        <path d="M24 0H0V24H24V0Z" fill="white" fill-opacity="0.01"/>
        <path d="M8.5 16C8.23478 16 7.98043 16.1054 7.79289 16.2929C7.60536 16.4804 7.5 16.7348 7.5 17V21.07C7.5 21.3352 7.60536 21.5896 7.79289 21.7771C7.98043 21.9646 8.23478 22.07 8.5 22.07C8.76522 22.07 9.01957 21.9646 9.20711 21.7771C9.39464 21.5896 9.5 21.3352 9.5 21.07V17C9.5 16.7348 9.39464 16.4804 9.20711 16.2929C9.01957 16.1054 8.76522 16 8.5 16Z"/>
        <path d="M4.5 19C4.23478 19 3.98043 19.1054 3.79289 19.2929C3.60536 19.4804 3.5 19.7348 3.5 20V21C3.5 21.2652 3.60536 21.5196 3.79289 21.7071C3.98043 21.8946 4.23478 22 4.5 22C4.76522 22 5.01957 21.8946 5.20711 21.7071C5.39464 21.5196 5.5 21.2652 5.5 21V20C5.5 19.7348 5.39464 19.4804 5.20711 19.2929C5.01957 19.1054 4.76522 19 4.5 19Z"/>
        <path d="M12.5 12.5C12.2348 12.5 11.9804 12.6054 11.7929 12.7929C11.6054 12.9804 11.5 13.2348 11.5 13.5V21C11.5 21.2652 11.6054 21.5196 11.7929 21.7071C11.9804 21.8946 12.2348 22 12.5 22C12.7652 22 13.0196 21.8946 13.2071 21.7071C13.3946 21.5196 13.5 21.2652 13.5 21V13.5C13.5 13.2348 13.3946 12.9804 13.2071 12.7929C13.0196 12.6054 12.7652 12.5 12.5 12.5Z"/>
        <path d="M16.5 8.47998C16.2348 8.47998 15.9804 8.58534 15.7929 8.77287C15.6054 8.96041 15.5 9.21476 15.5 9.47998V21C15.5 21.2652 15.6054 21.5196 15.7929 21.7071C15.9804 21.8946 16.2348 22 16.5 22C16.7652 22 17.0196 21.8946 17.2071 21.7071C17.3946 21.5196 17.5 21.2652 17.5 21V9.47998C17.5 9.21476 17.3946 8.96041 17.2071 8.77287C17.0196 8.58534 16.7652 8.47998 16.5 8.47998Z"/>
        <path d="M20.5 4.48999C20.2348 4.48999 19.9804 4.59535 19.7929 4.78288C19.6054 4.97042 19.5 5.22477 19.5 5.48999V21C19.5 21.2652 19.6054 21.5196 19.7929 21.7071C19.9804 21.8946 20.2348 22 20.5 22C20.7652 22 21.0196 21.8946 21.2071 21.7071C21.3946 21.5196 21.5 21.2652 21.5 21V5.48999C21.5 5.22477 21.3946 4.97042 21.2071 4.78288C21.0196 4.59535 20.7652 4.48999 20.5 4.48999Z"/>
        <path d="M17.92 2.62C17.8185 2.37565 17.6243 2.18147 17.38 2.08C17.2598 2.02876 17.1307 2.00158 17 2H11.75C11.4848 2 11.2304 2.10536 11.0429 2.29289C10.8554 2.48043 10.75 2.73478 10.75 3C10.75 3.26522 10.8554 3.51957 11.0429 3.70711C11.2304 3.89464 11.4848 4 11.75 4H14.59L2.79 15.79C2.69627 15.883 2.62188 15.9936 2.57111 16.1154C2.52034 16.2373 2.4942 16.368 2.4942 16.5C2.4942 16.632 2.52034 16.7627 2.57111 16.8846C2.62188 17.0064 2.69627 17.117 2.79 17.21C2.88296 17.3037 2.99356 17.3781 3.11542 17.4289C3.23728 17.4797 3.36799 17.5058 3.5 17.5058C3.63201 17.5058 3.76272 17.4797 3.88458 17.4289C4.00644 17.3781 4.11704 17.3037 4.21 17.21L17.71 3.71C17.801 3.6149 17.8724 3.50275 17.92 3.38C18.02 3.13654 18.02 2.86346 17.92 2.62Z"/>
    </symbol>

    <symbol id="links3" viewBox="0 0 24 24">
        <path d="M24 0H0V24H24V0Z" fill="white" fill-opacity="0.01"/>
        <path d="M8.10998 20.8901C7.02192 20.8904 5.9582 20.5681 5.05339 19.9637C4.14858 19.3594 3.44335 18.5003 3.02692 17.4951C2.61049 16.4899 2.50157 15.3837 2.71394 14.3166C2.92631 13.2494 3.45043 12.2693 4.21998 11.5001L11.65 4.08006C11.8413 3.91624 12.0874 3.83063 12.339 3.84035C12.5907 3.85007 12.8295 3.95441 13.0075 4.1325C13.1856 4.31059 13.29 4.54933 13.2997 4.80101C13.3094 5.05269 13.2238 5.29876 13.06 5.49006L5.63998 12.9101C4.98357 13.5731 4.61744 14.4697 4.62213 15.4027C4.62682 16.3357 5.00194 17.2287 5.66498 17.8851C6.32802 18.5415 7.22467 18.9076 8.15766 18.9029C9.09065 18.8982 9.98357 18.5231 10.64 17.8601L19.42 9.00006C19.7871 8.63001 19.9952 8.13127 20 7.61006C19.9977 7.08049 19.7856 6.57341 19.41 6.20006C19.0353 5.82756 18.5284 5.61848 18 5.61848C17.4716 5.61848 16.9647 5.82756 16.59 6.20006L7.75998 15.0001C7.71215 15.045 7.67403 15.0992 7.64797 15.1594C7.62191 15.2196 7.60846 15.2845 7.60846 15.3501C7.60846 15.4157 7.62191 15.4806 7.64797 15.5408C7.67403 15.601 7.71215 15.6552 7.75998 15.7001C7.80487 15.7479 7.85909 15.786 7.91929 15.8121C7.97949 15.8381 8.04439 15.8516 8.10998 15.8516C8.17558 15.8516 8.24048 15.8381 8.30068 15.8121C8.36088 15.786 8.41509 15.7479 8.45998 15.7001L15.89 8.28006C16.0823 8.09309 16.3409 7.99015 16.6091 7.9939C16.8773 7.99765 17.133 8.10778 17.32 8.30006C17.507 8.49235 17.6099 8.75103 17.6061 9.01921C17.6024 9.28738 17.4923 9.54309 17.3 9.73006L9.87998 17.1601C9.53034 17.5106 9.08448 17.7494 8.59894 17.8463C8.11339 17.9431 7.61003 17.8936 7.15267 17.704C6.6953 17.5144 6.30452 17.1933 6.02988 16.7813C5.75524 16.3694 5.6091 15.8852 5.60998 15.3901C5.60885 15.0615 5.67277 14.7359 5.79806 14.4321C5.92335 14.1283 6.10753 13.8523 6.33998 13.6201L15.18 4.78006C15.9426 4.05259 16.956 3.64673 18.01 3.64673C19.0639 3.64673 20.0774 4.05259 20.84 4.78006C21.2119 5.15156 21.5069 5.59271 21.7082 6.0783C21.9095 6.56389 22.0131 7.0844 22.0131 7.61006C22.0131 8.13573 21.9095 8.65623 21.7082 9.14183C21.5069 9.62742 21.2119 10.0686 20.84 10.4401L12 19.2801C11.4894 19.7912 10.883 20.1965 10.2154 20.4728C9.54792 20.749 8.83242 20.8908 8.10998 20.8901Z"/>
    </symbol>

</svg>

